<?xml version="1.0" standalone="no"?>
<!DOCTYPE svg PUBLIC "-//W3C//DTD SVG 20010904//EN"
 "http://www.w3.org/TR/2001/REC-SVG-20010904/DTD/svg10.dtd">
<svg version="1.0" xmlns="http://www.w3.org/2000/svg"
 width="725.000000pt" height="376.000000pt" viewBox="0 0 725.000000 376.000000"
 preserveAspectRatio="xMidYMid meet">
<metadata>
Created by potrace 1.16, written by Peter Selinger 2001-2019
</metadata>
<g transform="translate(0.000000,376.000000) scale(0.100000,-0.100000)"
fill="#000000" stroke="none">
<path d="M1680 3565 c0 -8 -6 -15 -12 -16 -92 -3 -284 4 -286 11 -2 6 -12 10
-23 10 -17 0 -19 -8 -19 -75 0 -68 2 -75 20 -75 11 0 20 5 20 10 0 6 40 10
101 10 90 0 100 -2 97 -17 -2 -10 -11 -16 -19 -14 -8 2 -25 5 -39 5 -22 1 -25
-3 -27 -39 -3 -39 -1 -41 44 -62 44 -20 47 -21 69 -5 40 29 41 65 3 77 -12 4
-19 16 -19 31 0 23 3 25 43 22 29 -2 42 -8 42 -18 0 -12 20 -16 108 -18 l108
-3 15 36 c12 30 18 35 37 30 21 -7 21 -7 2 8 -16 12 -17 17 -7 30 11 13 10 15
-7 10 -17 -4 -21 -1 -21 19 0 42 -17 48 -127 48 -85 0 -103 -3 -103 -15z"/>
<path d="M2478 3553 c-18 -21 -32 -83 -18 -83 12 0 1 -59 -17 -85 -17 -25 -17
-45 1 -45 8 0 16 -7 20 -15 7 -18 45 -20 51 -2 6 14 175 11 175 -4 0 -5 11 -9
25 -9 14 0 25 5 25 10 0 6 24 10 53 10 l52 0 -3 60 -4 59 -56 4 -57 3 58 2
c52 2 57 4 58 25 2 39 -2 52 -23 70 -17 15 -42 17 -173 17 -132 0 -154 -2
-167 -17z"/>
<path d="M3261 3556 c-8 -9 -11 -43 -9 -93 3 -77 3 -78 28 -75 14 2 36 3 50 3
14 0 36 -1 50 -3 25 -3 25 -2 28 75 2 50 -1 84 -9 93 -16 19 -122 19 -138 0z"/>
<path d="M3634 3560 c-22 -4 -58 -16 -80 -25 -35 -15 -37 -18 -21 -29 10 -8
17 -26 17 -45 l0 -31 174 0 c185 0 186 0 186 50 0 10 5 20 12 22 21 7 -1 26
-50 42 -57 20 -181 28 -238 16z"/>
<path d="M4228 3554 c-50 -21 -78 -79 -78 -162 l0 -62 425 0 425 0 0 76 c0 87
-18 135 -56 153 -17 7 -128 11 -352 10 -271 0 -333 -3 -364 -15z"/>
<path d="M5153 3564 c4 -7 -5 -19 -19 -29 -23 -15 -24 -18 -10 -34 14 -15 15
-79 1 -101 -6 -9 12 -24 39 -34 19 -7 19 -8 0 53 -8 25 21 51 57 51 25 0 33
-6 45 -37 12 -28 18 -33 25 -22 5 8 9 25 9 38 l0 23 19 -23 c10 -13 16 -29 14
-36 -3 -8 9 -19 31 -28 42 -18 49 -19 41 -5 -4 6 8 10 27 11 18 1 42 2 53 3
11 0 29 15 40 33 11 18 26 32 33 33 7 0 10 5 6 11 -4 7 -20 9 -40 6 -20 -4
-35 -1 -38 6 -2 7 -5 -2 -5 -20 -1 -32 -15 -51 -25 -34 -4 5 -2 12 4 16 14 9
12 62 -2 68 -10 4 -10 6 -1 6 9 1 10 7 2 24 -8 19 -17 22 -40 19 -24 -4 -27
-7 -18 -18 10 -12 8 -13 -7 -7 -10 3 -29 13 -42 21 -18 12 -28 13 -49 3 -22
-10 -25 -16 -20 -46 3 -19 2 -35 -2 -35 -17 0 -51 39 -51 58 0 27 -15 36 -38
23 -13 -7 -23 -6 -32 2 -8 8 -11 8 -7 1z"/>
<path d="M6470 3561 c0 -6 5 -13 10 -16 22 -14 9 -27 -20 -21 -21 4 -40 -1
-63 -14 -33 -21 -82 -27 -91 -11 -18 28 -242 -69 -314 -138 -22 -20 -68 -49
-103 -66 -35 -16 -66 -33 -69 -36 -10 -11 -231 -119 -244 -119 -12 0 -101 -42
-134 -63 -10 -7 0 -32 39 -107 l53 -98 67 34 c37 18 71 39 76 46 9 14 31 28
96 59 23 11 49 25 57 30 8 5 40 21 70 36 30 15 72 37 92 50 21 13 65 30 98 37
76 18 222 97 266 143 18 19 33 38 32 42 -4 11 22 51 33 51 17 0 79 46 72 53
-8 9 32 53 72 79 17 11 21 17 10 13 -11 -4 -31 -10 -44 -13 -20 -4 -22 -2 -16
17 5 18 2 21 -19 21 -14 0 -26 -4 -26 -9z"/>
<path d="M5925 3546 c-27 -8 -112 -26 -187 -42 -125 -26 -137 -31 -133 -49 2
-11 4 -21 6 -22 1 -2 3 -6 4 -10 7 -24 27 -73 30 -73 8 0 369 190 379 200 14
14 -36 12 -99 -4z"/>
<path d="M1975 3540 c-3 -5 0 -18 7 -30 10 -16 10 -24 0 -41 -19 -30 -3 -42
62 -45 66 -3 86 11 86 61 0 61 -5 65 -80 65 -38 0 -71 -4 -75 -10z"/>
<path d="M2225 3508 c-14 -32 -39 -37 -30 -7 6 22 4 21 -22 -7 -15 -17 -36
-45 -45 -62 -12 -23 -24 -32 -42 -32 -14 0 -27 -4 -30 -9 -3 -5 -15 -7 -26 -4
-14 4 -20 0 -20 -11 0 -9 -5 -16 -12 -16 -6 0 -9 -2 -6 -5 8 -9 38 6 32 16 -3
5 0 9 5 9 6 0 11 -8 11 -17 0 -11 3 -14 8 -7 9 14 52 37 58 31 7 -6 -87 -197
-97 -197 -4 0 -14 6 -21 14 -8 7 -25 17 -38 21 -14 4 -41 18 -60 29 -19 12
-54 30 -77 40 -24 11 -43 25 -43 33 0 8 -4 12 -10 8 -5 -3 -26 1 -46 10 -56
23 -61 18 -18 -20 21 -19 43 -35 48 -35 10 0 208 -99 219 -110 5 -4 2 -22 -7
-39 l-16 -31 72 -36 71 -36 16 21 c16 20 18 20 76 5 82 -21 209 -84 272 -133
41 -33 51 -47 50 -68 -2 -23 6 -31 58 -59 33 -18 63 -33 67 -33 4 -1 15 13 23
29 14 28 39 36 55 20 8 -8 96 -50 104 -50 4 0 14 -7 23 -15 8 -8 19 -13 24
-10 5 4 9 2 9 -4 0 -6 7 -7 17 -4 10 4 14 2 10 -4 -7 -11 13 -23 48 -29 11 -2
31 -6 45 -9 23 -5 24 -5 6 7 -42 29 -86 71 -86 83 0 7 -6 15 -13 18 -8 3 -21
20 -30 39 -9 18 -17 26 -17 16 0 -9 5 -20 11 -24 6 -3 8 -18 5 -33 -3 -14 -3
-20 0 -13 8 17 24 15 24 -3 0 -8 5 -15 10 -15 6 0 10 -4 10 -10 0 -5 -45 13
-100 41 -55 28 -100 55 -100 59 0 5 -6 7 -12 5 -7 -3 -19 -1 -26 4 -11 7 -4
28 33 100 26 50 50 91 55 91 13 0 20 -42 9 -61 -7 -15 -6 -17 5 -13 23 9 27
32 11 70 -13 32 -13 38 4 72 36 71 37 102 2 70 -11 -11 -13 -7 -7 22 6 34 6
34 -9 13 -20 -28 -39 -30 -30 -3 3 11 3 20 -1 20 -10 0 -43 -40 -49 -61 -7
-21 -20 -25 -30 -9 -3 6 -12 10 -18 10 -7 0 -1 -9 13 -20 31 -24 12 -26 -34
-2 -38 18 -49 38 -16 29 37 -9 21 3 -37 30 -32 14 -65 34 -74 44 -9 11 -26 19
-37 19 -20 0 -53 16 -111 52 -18 11 -23 11 -30 0 -7 -11 -15 -11 -45 2 -20 8
-36 20 -36 26 0 6 11 5 30 -5 43 -22 50 -18 12 7 -23 14 -31 25 -27 37 26 61
24 86 -3 59 -9 -9 -12 -8 -12 6 0 9 5 26 10 37 6 10 7 19 3 19 -5 0 -13 -10
-18 -22z m207 -284 c117 -58 215 -108 217 -110 5 -4 -93 -194 -99 -191 -111
54 -419 209 -428 215 -10 7 -3 29 33 100 25 51 50 92 55 92 5 0 105 -48 222
-106z"/>
<path d="M2222 3277 c-15 -18 -52 -99 -52 -114 0 -7 7 -13 16 -13 9 0 85 -36
169 -80 83 -44 155 -77 159 -73 3 3 6 -1 6 -11 0 -28 19 -8 50 54 34 68 36 74
15 66 -8 -3 -15 -1 -15 4 0 5 -69 43 -152 86 -84 42 -157 80 -162 85 -14 12
-22 11 -34 -4z m113 -63 c17 -9 62 -32 100 -52 39 -19 72 -37 74 -38 7 -6 -21
-64 -31 -64 -5 0 -6 -4 -3 -10 12 -20 -19 -9 -118 42 -56 28 -103 52 -105 53
-7 6 32 85 42 85 6 0 25 -7 41 -16z"/>
<path d="M6625 3510 c-10 -12 -25 -18 -32 -15 -8 2 -12 1 -9 -4 3 -5 -18 -30
-47 -56 -105 -95 -118 -110 -108 -113 16 -5 271 128 271 142 0 15 -38 66 -49
66 -4 0 -16 -9 -26 -20z"/>
<path d="M2922 3490 c-6 -11 -12 -27 -12 -37 0 -9 -10 -36 -21 -61 -19 -38
-21 -53 -14 -115 5 -40 8 -143 8 -229 l-1 -158 56 0 57 0 0 257 c0 196 -3 257
-12 260 -7 3 -13 17 -13 31 0 15 -8 37 -18 50 -17 22 -17 22 -30 2z"/>
<path d="M5038 3466 c-21 -15 -26 -116 -7 -116 8 0 10 -25 7 -80 l-5 -80 31 0
32 0 -4 70 c-2 38 -1 78 3 87 14 32 12 97 -3 116 -18 20 -31 21 -54 3z"/>
<path d="M3433 3418 c3 -13 13 -81 23 -151 9 -70 20 -124 24 -120 7 8 40 230
40 271 0 20 -5 22 -46 22 -43 0 -46 -2 -41 -22z"/>
<path d="M247 3412 c-18 -4 -47 -61 -47 -93 0 -12 18 -27 54 -45 59 -29 88
-27 79 4 -3 12 3 28 16 41 12 12 21 27 21 34 0 16 -99 64 -123 59z"/>
<path d="M3547 3183 c2 -126 3 -317 3 -426 l0 -197 178 2 177 3 3 423 2 422
-182 0 -183 0 2 -227z"/>
<path d="M3290 3355 c0 -6 5 -16 11 -22 14 -14 3 -33 -19 -33 -10 0 -28 -7
-40 -16 -21 -14 -22 -22 -22 -146 0 -121 1 -130 20 -135 19 -5 20 -14 20 -189
0 -116 -4 -184 -10 -184 -5 0 -10 -11 -10 -25 0 -25 0 -25 95 -25 89 0 95 1
95 20 0 11 -7 23 -15 26 -13 5 -15 36 -15 190 0 177 1 184 20 184 19 0 20 7
20 140 0 127 -2 140 -19 150 -11 5 -29 10 -40 10 -27 0 -35 17 -17 36 22 22
20 31 -2 11 -24 -22 -48 -22 -61 1 -6 9 -11 12 -11 7z"/>
<path d="M5348 3353 c-9 -2 -19 -17 -23 -33 -12 -55 -58 -76 -109 -50 -30 15
-41 16 -62 6 -23 -10 -25 -15 -20 -55 3 -24 11 -51 18 -59 28 -33 190 15 260
77 l41 37 -27 42 c-25 40 -37 46 -78 35z"/>
<path d="M421 3308 c-29 -26 -35 -38 -36 -76 l-1 -44 100 -50 c76 -38 101 -47
107 -36 11 17 266 -108 275 -134 10 -33 34 -18 64 42 16 33 30 64 30 70 0 5
-15 10 -32 10 -45 1 -274 120 -271 140 2 11 -28 31 -92 63 -52 26 -99 47 -103
47 -4 0 -23 -15 -41 -32z"/>
<path d="M615 3305 c81 -66 220 -165 232 -165 7 0 21 17 32 39 l20 38 -150 57
c-82 31 -152 56 -157 55 -4 0 7 -11 23 -24z"/>
<path d="M4155 3298 c-2 -7 -5 -70 -7 -141 l-3 -127 103 0 102 0 0 30 c0 42
39 80 82 80 46 0 75 -23 89 -70 9 -28 18 -40 31 -40 21 0 23 -11 6 -28 -9 -9
-9 -12 1 -12 7 0 15 9 18 20 5 19 14 20 133 20 l128 0 6 32 c9 48 43 78 85 78
42 -1 66 -17 80 -53 15 -39 51 -37 51 3 0 33 7 37 24 16 8 -10 19 -11 44 -4
32 8 33 10 20 30 -8 12 -24 28 -35 35 -18 12 -21 12 -27 -2 -3 -9 -2 -13 4
-10 6 3 7 -1 4 -9 -9 -22 -19 -20 -38 9 -9 14 -23 25 -30 25 -17 0 -26 31 -26
88 l0 42 -420 0 c-328 0 -422 -3 -425 -12z"/>
<path d="M900 3161 c0 -6 73 -49 97 -57 2 0 -10 -25 -26 -55 -16 -30 -32 -73
-36 -96 -6 -39 -5 -43 13 -43 11 0 27 -3 36 -6 11 -4 28 21 67 99 l52 104 -22
22 c-25 25 -29 26 -53 4 -17 -15 -18 -15 -18 5 0 12 -4 22 -10 22 -5 0 -7 -7
-4 -15 8 -21 -14 -19 -59 5 -20 11 -37 16 -37 11z"/>
<path d="M4880 3098 c-25 -27 -26 -59 -2 -89 38 -46 122 -17 122 43 0 61 -78
91 -120 46z"/>
<path d="M220 3098 c0 -9 -9 -20 -20 -23 -23 -7 -26 -28 -6 -44 10 -9 11 -21
4 -57 -11 -49 -3 -68 33 -77 16 -4 19 -2 13 11 -17 40 -15 68 4 86 31 28 64
17 86 -28 l19 -39 12 29 c13 30 14 29 29 -20 7 -22 78 -27 96 -7 9 10 21 16
27 14 6 -2 15 1 19 8 4 8 3 9 -4 5 -7 -4 -12 -3 -12 2 0 5 -11 7 -25 4 -20 -3
-25 0 -25 17 0 15 -6 21 -23 21 -13 0 -28 -5 -34 -11 -7 -7 -9 -3 -6 15 6 28
-11 36 -21 11 -4 -13 -9 -12 -36 3 -16 9 -30 20 -30 25 0 4 -7 7 -15 7 -9 0
-12 6 -9 15 10 25 -14 47 -38 34 -16 -8 -23 -8 -29 2 -7 11 -9 10 -9 -3z"/>
<path d="M1112 3096 c-18 -24 -106 -205 -102 -209 12 -9 500 -257 507 -257 4
0 31 46 60 103 40 78 49 105 40 113 -7 6 -121 68 -254 136 -165 85 -245 122
-251 114z m35 -87 c8 -8 9 -19 2 -37 -5 -13 -7 -27 -4 -30 3 -3 5 -1 5 4 0 6
6 18 13 28 12 16 18 14 95 -24 75 -38 81 -43 71 -61 -6 -12 -8 -23 -6 -26 3
-2 8 5 12 16 7 23 17 26 45 11 12 -7 17 -17 14 -28 -5 -14 -4 -15 5 -2 15 21
46 0 45 -30 -1 -21 0 -21 12 -6 10 14 16 15 33 6 12 -6 21 -13 21 -15 0 -15
-36 -75 -44 -75 -25 1 -38 18 -31 41 7 23 6 23 -7 5 -10 -13 -21 -16 -36 -12
-25 8 -27 18 -11 49 9 20 9 20 -9 -2 -25 -31 -66 -22 -57 12 5 16 4 18 -3 8
-11 -15 -62 -8 -62 9 0 6 -4 10 -10 10 -5 0 -10 -7 -10 -15 0 -8 3 -14 8 -13
14 4 52 -13 52 -23 0 -6 4 -8 9 -5 5 3 21 -4 37 -17 16 -12 29 -20 29 -18 0 2
10 1 22 -3 14 -4 20 -12 16 -21 -4 -12 -9 -12 -26 -3 -12 6 -24 14 -27 17 -3
3 -68 37 -145 75 -77 38 -142 71 -144 73 -3 2 0 8 6 14 8 8 16 6 30 -8 11 -11
24 -18 29 -16 5 2 20 -6 32 -17 12 -12 22 -18 22 -15 0 3 9 1 20 -5 11 -6 20
-7 20 -1 0 5 -20 18 -45 30 -27 13 -43 26 -39 32 4 7 0 9 -13 5 -34 -11 -46
16 -26 58 17 37 31 44 50 25z"/>
<path d="M5228 2995 c-88 -45 -129 -71 -133 -86 -6 -17 -9 -19 -17 -8 -7 11
-11 11 -15 2 -2 -7 -16 -13 -29 -13 -17 0 -24 -6 -24 -19 0 -11 -5 -23 -10
-26 -19 -12 1 -25 36 -25 19 0 36 6 38 13 16 54 17 54 32 25 8 -16 19 -28 25
-28 5 0 46 18 90 41 45 22 79 36 76 32 -3 -5 -28 -20 -56 -33 -43 -20 -50 -26
-45 -46 7 -28 -32 -56 -42 -30 -3 8 -3 20 1 25 4 7 0 8 -10 5 -12 -5 -15 -13
-10 -28 3 -11 7 -34 8 -51 1 -19 8 -30 17 -31 8 0 23 -4 32 -8 25 -11 41 3 35
30 -3 19 -1 22 9 14 9 -8 27 -4 66 16 29 15 55 29 58 33 3 3 18 6 34 6 17 0
31 6 34 15 5 13 3 13 -14 0 -17 -14 -18 -14 -6 1 7 9 25 19 40 23 15 3 35 12
45 20 18 14 17 16 -7 65 -25 48 -27 50 -54 41 l-27 -10 24 19 24 18 -22 32
c-16 22 -30 31 -49 30 -15 0 -84 -29 -154 -64z"/>
<path d="M4483 2978 c-6 -7 -13 -20 -16 -30 -3 -9 -19 -19 -36 -23 -24 -5 -31
-12 -31 -31 0 -13 5 -24 10 -24 21 0 9 -52 -17 -74 l-27 -24 53 -7 c32 -4 56
-3 60 2 8 13 54 38 63 35 13 -3 42 62 29 66 -6 2 -11 26 -11 57 0 39 -4 54
-16 59 -25 10 -51 7 -61 -6z"/>
<path d="M6757 2959 c-11 -6 -33 -9 -50 -6 -18 2 -41 0 -52 -6 -11 -6 -49 -12
-85 -12 -55 -1 -77 -8 -145 -42 -44 -23 -88 -50 -99 -61 -18 -21 -307 -172
-328 -172 -5 0 -32 -10 -60 -22 -41 -19 -48 -26 -42 -43 3 -11 6 -28 7 -37 1
-9 4 -15 7 -13 4 2 16 -16 28 -40 12 -25 26 -45 32 -45 16 0 108 48 112 58 5
14 127 72 151 72 11 0 17 3 14 7 -10 9 111 70 156 78 41 8 157 66 200 101 15
12 31 33 37 48 5 14 25 34 45 43 19 9 35 22 35 29 0 6 16 26 35 43 36 31 36
40 2 20z"/>
<path d="M6860 2941 c0 -5 -10 -11 -22 -13 -22 -3 -23 -8 -26 -100 -2 -75 0
-98 10 -98 10 0 13 -24 12 -97 0 -54 -4 -115 -8 -135 l-7 -38 58 0 58 0 -3
135 c-3 93 -1 135 7 135 7 0 11 33 11 95 0 93 -1 95 -25 101 -14 3 -25 10 -25
15 0 5 -9 9 -20 9 -11 0 -20 -4 -20 -9z"/>
<path d="M516 2922 c-18 -8 -18 -9 -3 -15 9 -3 17 -15 17 -26 0 -10 9 -21 20
-24 12 -3 20 -14 20 -26 0 -14 5 -19 15 -15 9 4 16 -3 20 -19 4 -14 15 -27 26
-30 11 -3 19 -14 19 -26 0 -12 6 -21 15 -21 7 0 18 -8 24 -17 8 -16 12 -13 25
19 20 47 20 69 1 115 -11 27 -12 39 -4 49 8 10 8 14 0 14 -6 0 -11 -5 -11 -11
0 -6 -14 0 -32 12 -33 24 -117 35 -152 21z"/>
<path d="M6751 2917 c-6 -8 -8 -27 -5 -46 6 -30 6 -31 -25 -25 -28 6 -31 4
-31 -20 0 -14 -5 -26 -10 -26 -6 0 -16 -5 -23 -10 -7 -6 -20 -17 -31 -24 -16
-11 -17 -18 -9 -42 l10 -29 16 32 c20 37 48 49 76 31 30 -18 35 -45 16 -74
-20 -32 -17 -37 15 -21 19 10 25 21 25 47 0 19 -3 41 -8 47 -6 9 -4 15 7 19
20 8 21 43 1 50 -23 9 -19 54 5 54 16 0 18 4 11 22 -10 27 -25 33 -40 15z"/>
<path d="M423 2893 c-13 -2 -23 -12 -23 -21 0 -9 -9 -32 -20 -49 -22 -38 -60
-44 -98 -17 -19 13 -28 14 -53 4 -24 -10 -29 -18 -29 -46 0 -18 4 -44 10 -58
8 -22 16 -26 47 -26 21 0 68 11 106 24 37 13 67 22 67 20 0 -2 -6 -13 -12 -24
-11 -17 -10 -22 1 -29 7 -5 9 -11 5 -13 -12 -7 -62 -3 -71 5 -3 4 -39 7 -80 7
l-73 0 0 -104 0 -104 288 1 c158 0 342 -3 410 -7 67 -5 130 -5 140 -1 9 4 25
9 35 10 9 1 27 11 38 23 15 17 31 22 69 22 28 0 50 4 50 8 0 8 43 32 55 32 3
0 5 -6 5 -14 0 -8 6 -16 13 -19 11 -3 -53 -24 -125 -41 -58 -13 -24 -24 82
-25 61 -1 114 0 118 3 5 3 6 21 4 40 -4 33 -6 35 -33 29 -25 -5 -29 -2 -29 15
0 17 8 22 38 25 35 3 35 4 -9 5 -50 2 -109 19 -109 32 0 4 -25 10 -56 13 -39
4 -62 12 -76 26 -10 12 -30 21 -43 21 -14 0 -25 5 -25 11 0 6 17 8 48 4 l47
-6 -78 41 c-79 41 -97 43 -97 11 0 -12 12 -22 33 -29 27 -8 16 -10 -69 -11
-55 -1 -121 -7 -145 -14 -24 -7 -82 -12 -129 -11 -142 3 -140 3 -134 19 5 11
2 13 -10 9 -31 -12 -16 12 41 63 32 29 53 53 48 53 -6 0 -34 -21 -63 -46 -48
-42 -55 -45 -69 -31 -14 14 -12 18 21 47 20 18 36 36 36 41 0 17 -53 89 -64
88 -6 -1 -21 -4 -33 -6z"/>
<path d="M4806 2778 c-9 -12 -16 -37 -16 -55 0 -23 -4 -31 -13 -27 -7 2 -20
-3 -29 -13 -12 -15 -13 -22 -2 -43 10 -18 14 -20 18 -10 12 39 16 42 11 10 -4
-31 -1 -37 22 -47 15 -7 33 -13 40 -13 7 0 13 -4 13 -10 0 -15 -27 -12 -44 5
-8 8 -18 15 -21 15 -4 0 -5 -7 -1 -15 3 -8 1 -15 -4 -15 -5 0 -16 -13 -25 -30
-14 -27 -9 -41 9 -23 4 4 22 6 41 4 38 -3 76 29 101 84 10 22 13 25 14 11 0
-31 17 -6 24 37 4 22 3 37 -3 37 -5 0 -12 -12 -14 -27 -3 -20 -4 -16 -6 14 0
23 -5 45 -11 48 -5 3 -10 15 -10 26 0 25 -34 59 -59 59 -11 0 -27 -10 -35 -22z"/>
<path d="M3458 2736 c3 -34 0 -56 -7 -61 -8 -4 -9 -11 -2 -18 23 -29 -50 -237
-83 -237 -9 0 -16 -7 -16 -15 0 -19 -14 -19 -29 -1 -24 28 -70 4 -71 -36 0
-10 -6 -18 -12 -18 -8 -1 -5 -6 5 -14 15 -11 16 -19 8 -34 -9 -18 -6 -20 32
-25 23 -3 46 -2 52 4 5 5 0 9 -15 9 -14 0 -31 4 -39 9 -16 10 -6 31 15 31 8 0
14 5 14 10 0 6 -9 10 -20 10 -22 0 -28 34 -9 46 11 7 58 -13 72 -31 13 -17 -2
-124 -23 -165 -26 -50 -45 -63 -37 -25 6 33 -1 57 -14 49 -5 -3 -6 -23 -3 -45
5 -28 3 -39 -6 -39 -7 0 -10 -6 -7 -14 3 -8 -1 -20 -9 -26 -8 -7 -14 -27 -14
-44 0 -17 -7 -40 -15 -50 -22 -29 -22 -468 0 -486 8 -7 15 -27 15 -44 0 -18 7
-41 15 -52 17 -23 22 -244 5 -244 -14 0 -12 -27 3 -33 9 -3 9 -9 -1 -27 -10
-16 -11 -25 -3 -33 16 -16 15 -194 -1 -199 -10 -4 -10 -10 -1 -30 8 -18 8 -29
1 -36 -8 -8 -8 -15 1 -26 14 -17 14 -174 -1 -193 -6 -7 -4 -19 4 -33 11 -18
11 -22 -4 -31 -16 -9 -18 -28 -18 -175 l0 -164 223 2 222 3 3 160 c2 143 1
161 -15 173 -14 10 -15 16 -5 32 7 12 8 21 2 25 -14 9 -13 202 1 207 9 3 8 10
-2 25 -10 17 -10 24 0 36 9 11 9 17 1 22 -14 8 -11 253 2 272 5 6 5 14 -2 18
-17 10 -13 236 5 259 8 11 15 32 15 47 0 15 5 31 10 34 6 4 10 97 10 245 0
148 -4 241 -10 245 -5 3 -10 24 -10 46 0 27 -5 42 -16 46 -9 3 -14 13 -11 24
3 11 1 19 -5 19 -5 0 -9 15 -8 33 3 49 1 59 -11 51 -6 -3 -9 -19 -5 -35 9 -44
-8 -42 -34 4 -18 33 -24 60 -26 122 -6 165 -5 164 -13 130 l-7 -30 -22 35
c-29 47 -64 153 -61 187 4 58 -1 153 -9 153 -5 0 -7 -24 -4 -54z m202 -975 l0
-200 -197 2 -198 2 -3 185 c-1 101 0 190 2 197 4 10 51 13 201 13 l195 0 0
-199z"/>
<path d="M3280 1765 l0 -185 185 0 185 0 -2 183 -3 182 -182 3 -183 2 0 -185z
m245 60 c38 -37 35 -95 -6 -129 -17 -14 -40 -26 -51 -26 -17 0 -19 4 -13 33 4
17 12 38 18 45 8 11 2 21 -28 46 -45 38 -40 56 16 56 29 0 47 -7 64 -25z"/>
<path d="M1842 2712 c-13 -13 -32 -19 -58 -18 -34 1 -39 -2 -42 -22 -2 -13 2
-30 8 -38 17 -20 7 -18 -44 11 -25 14 -51 25 -58 25 -7 0 13 -14 45 -30 31
-17 62 -28 67 -25 10 6 50 -29 50 -45 0 -5 14 -10 30 -10 17 0 30 4 30 8 0 8
88 37 103 33 5 -1 5 4 1 10 -5 9 1 10 22 6 l29 -6 -28 12 c-22 9 -27 16 -22
34 5 21 3 21 -25 12 -19 -7 -30 -18 -30 -30 0 -10 -4 -19 -10 -19 -6 0 -6 9 0
26 9 22 7 27 -11 31 -12 4 -16 8 -10 13 8 4 5 12 -8 24 -19 17 -20 17 -39 -2z"/>
<path d="M6399 2643 c-13 -33 -23 -37 -81 -33 -19 1 -28 -5 -33 -19 -3 -12 -4
-25 0 -30 12 -20 -15 -21 -35 -1 -20 20 -20 20 -20 0 0 -12 7 -20 17 -20 13 0
14 -3 5 -12 -18 -18 -14 -56 7 -68 12 -6 36 -7 65 -1 31 6 46 5 49 -3 5 -14
58 33 55 48 -2 6 3 30 11 53 13 38 12 45 -1 60 -9 10 -18 27 -21 38 -4 17 -6
15 -18 -12z"/>
<path d="M6496 2637 c-15 -19 -26 -41 -26 -49 0 -15 45 -59 86 -85 18 -11 18
-12 -3 -12 -13 -1 -23 4 -23 10 0 5 -4 8 -9 5 -4 -3 -16 3 -26 14 -10 11 -22
20 -26 20 -14 0 -30 -73 -19 -84 7 -7 10 -6 10 1 0 6 11 10 25 8 15 -1 29 4
35 14 8 14 9 13 10 -4 0 -11 4 -15 8 -10 11 16 34 17 45 3 6 -9 7 -8 3 6 -5
14 -3 17 11 11 31 -13 106 -35 118 -35 23 0 43 26 50 66 6 37 3 43 -20 58 -23
15 -28 15 -47 1 -48 -33 -99 -11 -113 48 -5 17 -17 32 -32 38 -32 12 -29 14
-57 -24z"/>
<path d="M2059 2603 c-7 -20 -6 -29 3 -35 12 -8 -17 -4 -63 8 -19 5 -29 -14
-35 -73 l-5 -43 206 0 c113 0 204 4 201 8 -3 5 -69 26 -148 48 -142 38 -172
59 -43 29 69 -16 92 -15 58 3 -63 34 -112 59 -136 69 -26 12 -28 11 -38 -14z"/>
<path d="M4720 2610 c0 -5 -5 -10 -10 -10 -6 0 -16 -5 -23 -10 -7 -6 -22 -18
-34 -28 -68 -54 -93 -76 -93 -83 0 -10 58 -29 73 -24 7 2 25 6 40 9 37 9 67
59 67 114 0 23 -4 42 -10 42 -5 0 -10 -4 -10 -10z"/>
<path d="M3546 2531 c-4 -5 -3 -16 0 -25 5 -14 31 -16 185 -16 l179 0 0 25 0
25 -179 0 c-99 0 -182 -4 -185 -9z"/>
<path d="M3859 2431 c-14 -19 -27 -27 -38 -24 -9 4 -4 -6 12 -20 15 -14 27
-31 27 -37 0 -19 -15 -9 -36 23 -11 18 -27 31 -36 31 -11 -1 -15 4 -11 15 4 9
3 13 -2 9 -4 -4 -16 -3 -27 3 -15 8 -23 7 -34 -8 -19 -26 -18 -44 4 -36 14 5
13 3 -3 -10 -11 -9 -29 -17 -41 -17 -26 0 -54 -30 -54 -57 0 -36 33 -55 103
-56 52 -2 61 -4 48 -14 -23 -17 1 -17 44 1 42 18 46 31 8 22 -26 -5 -26 -5 5
11 17 9 32 20 32 23 0 4 11 19 26 35 21 22 24 33 18 59 -4 17 -7 41 -7 54 1
30 -12 28 -38 -7z"/>
<path d="M305 2209 c-72 -20 -105 -82 -105 -194 l0 -75 483 2 482 3 0 95 c0
76 -4 102 -18 124 -36 54 -53 56 -449 55 -200 0 -377 -5 -393 -10z m280 -99
l0 -45 -80 0 c-76 0 -80 1 -83 24 -2 12 -1 34 2 47 6 24 9 25 84 22 l77 -3 0
-45z m185 0 l0 -50 -80 0 -80 0 0 50 0 50 80 0 80 0 0 -50z m180 0 l0 -51 -77
3 -78 3 -3 33 c-6 58 0 62 83 62 l75 0 0 -50z m170 31 c5 -11 10 -34 10 -51
l0 -31 -77 3 -78 3 -1 40 c-1 22 1 43 3 48 2 4 33 7 68 7 53 0 66 -3 75 -19z"/>
<path d="M1530 2200 c0 -16 -7 -20 -35 -20 -43 0 -53 -19 -37 -64 10 -26 10
-33 -3 -42 -8 -6 -15 -17 -15 -23 0 -7 -11 -24 -25 -39 -14 -15 -25 -31 -25
-35 0 -15 22 -51 46 -76 l24 -24 0 61 c0 75 22 102 82 102 58 0 78 -26 78
-101 l0 -62 26 28 c38 41 44 65 26 98 -9 15 -20 27 -24 27 -4 0 -8 7 -8 16 0
9 -7 22 -16 29 -15 10 -15 14 -1 41 21 40 7 64 -38 64 -28 0 -35 4 -35 20 0
11 -4 20 -10 20 -5 0 -10 -9 -10 -20z"/>
<path d="M1824 2190 c14 -17 28 -46 32 -66 5 -28 10 -33 25 -29 17 6 19 1 19
-36 0 -45 -29 -102 -61 -119 -20 -11 -48 -2 -81 27 -15 13 -18 12 -32 -16 -9
-16 -16 -44 -16 -61 l0 -32 36 22 c19 13 54 28 77 35 23 7 42 16 42 21 1 5 11
25 23 44 12 19 22 44 22 55 0 11 13 32 29 48 l29 27 12 -34 c8 -25 8 -46 0
-74 -12 -46 -24 -59 -65 -65 -22 -4 -19 -4 10 -3 34 1 42 6 54 31 8 17 15 52
15 79 0 53 -20 78 -76 98 -16 6 -28 14 -28 19 0 18 -49 59 -70 59 -21 0 -21
-1 4 -30z"/>
<path d="M2194 2194 l-19 -26 -27 21 c-60 48 -108 14 -108 -76 0 -46 3 -53 19
-53 11 0 39 -15 63 -33 24 -18 48 -36 55 -40 17 -11 103 53 110 82 5 19 0 30
-21 48 -15 13 -34 23 -42 23 -16 0 -19 36 -4 45 12 7 13 35 2 35 -4 0 -17 -12
-28 -26z"/>
<path d="M2281 2204 c-33 -15 -34 -15 -12 -30 11 -8 21 -22 21 -30 0 -8 9 -14
20 -14 12 0 25 -10 31 -23 6 -13 20 -27 32 -32 12 -6 23 -20 25 -33 2 -12 8
-20 13 -16 15 9 49 -26 42 -44 -4 -10 -2 -13 5 -8 16 10 52 -12 52 -32 1 -11
6 -7 16 12 26 47 15 144 -20 191 -51 67 -148 92 -225 59z"/>
<path d="M2553 2169 c-2 -45 1 -55 27 -80 16 -16 39 -34 52 -39 23 -10 23 -11
1 -6 -37 7 -26 -11 13 -24 21 -7 39 -9 43 -3 5 7 34 18 109 39 17 5 25 30 18
57 -4 17 -16 26 -43 33 -23 5 -38 15 -38 24 0 8 -5 23 -11 33 -9 16 -13 17
-40 2 -16 -8 -24 -15 -19 -15 6 0 2 -5 -8 -11 -10 -6 -27 -25 -38 -42 -17 -28
-19 -29 -19 -10 0 12 10 29 23 39 12 9 15 14 6 11 -10 -3 -26 4 -40 19 -12 13
-25 24 -28 24 -3 0 -7 -23 -8 -51z"/>
<path d="M2810 2206 c-15 -15 -12 -26 5 -20 8 4 15 1 15 -5 0 -6 -6 -11 -12
-11 -7 -1 -1 -8 15 -16 15 -8 27 -17 27 -20 0 -3 -4 -2 -10 1 -5 3 -10 1 -10
-4 0 -6 16 -11 36 -11 l37 0 -55 -37 c-307 -212 -398 -277 -398 -283 0 -4 15
-27 33 -51 18 -24 50 -70 71 -101 22 -32 45 -58 52 -58 7 0 16 -9 19 -20 8
-24 18 -25 35 -5 15 17 13 21 -17 32 -18 7 16 34 223 177 l243 170 -33 45
c-18 25 -52 74 -76 108 -40 59 -44 62 -63 48 -36 -25 -72 -17 -49 11 5 5 14
22 20 37 l12 28 -55 -2 c-30 -1 -59 -7 -65 -13z"/>
<path d="M3020 2208 c0 -7 -9 -21 -20 -31 -20 -17 -20 -18 39 -100 33 -45 67
-92 76 -105 15 -21 19 -22 33 -9 10 8 23 12 31 9 20 -7 8 48 -24 113 -13 27
-22 51 -20 53 2 2 17 -5 34 -17 l30 -21 28 25 28 25 -24 20 c-15 13 -21 26
-17 36 5 14 4 15 -8 5 -11 -10 -19 -9 -35 1 -17 10 -23 10 -33 0 -11 -11 -10
-12 3 -7 9 3 22 -1 29 -10 11 -13 10 -19 -5 -33 -11 -11 -15 -12 -10 -3 6 11
4 13 -8 8 -10 -4 -17 0 -20 11 -3 11 -5 9 -6 -7 l-1 -24 -22 20 c-42 38 -78
57 -78 41z"/>
<path d="M4012 2207 c-6 -7 -10 -32 -9 -55 1 -36 4 -42 27 -45 14 -2 -18 -5
-71 -6 -82 -1 -101 -4 -130 -24 -46 -31 -59 -61 -59 -139 l0 -68 401 0 401 0
-4 90 c-5 139 4 134 -274 138 -138 2 -222 7 -219 13 4 5 -8 9 -24 9 -33 0 -46
30 -13 30 16 1 16 1 0 14 -10 7 -18 18 -18 24 0 19 20 24 37 10 14 -11 16 -11
11 2 -6 20 -42 25 -56 7z"/>
<path d="M4220 2176 c0 -40 3 -46 21 -46 41 0 274 33 282 40 4 4 -52 15 -125
24 -73 10 -143 20 -155 23 -21 5 -23 2 -23 -41z"/>
<path d="M4585 2195 c4 -25 1 -32 -17 -40 -36 -15 -30 -54 11 -82 34 -23 35
-23 55 -4 12 10 35 26 52 34 27 14 30 20 26 51 -2 19 -13 43 -23 52 -18 17
-21 16 -48 -4 l-29 -21 -16 22 c-16 22 -16 22 -11 -8z"/>
<path d="M4733 2213 c-7 -2 -13 -9 -13 -14 0 -6 4 -8 9 -5 5 4 12 -7 16 -24 4
-18 13 -30 23 -30 11 -1 5 -7 -14 -18 -17 -9 -42 -26 -55 -37 -28 -23 -89 -96
-89 -107 0 -4 15 -4 34 -1 41 6 76 -11 76 -37 0 -24 6 -25 26 -5 32 32 103 3
104 -42 1 -17 1 -17 14 0 25 33 106 15 106 -23 0 -24 13 -26 31 -4 24 29 99 1
99 -37 0 -23 16 -25 24 -4 3 9 18 15 36 15 18 0 29 -4 25 -10 -3 -5 -15 -10
-26 -10 -43 0 -26 -59 18 -61 10 0 -4 -11 -32 -25 -27 -13 -42 -24 -33 -24 10
0 32 9 50 20 18 11 40 20 49 20 9 0 22 7 29 15 7 8 16 12 21 9 5 -3 9 -1 9 3
0 5 19 17 43 28 23 10 46 24 50 32 4 7 13 13 19 13 6 0 20 7 30 17 10 9 21 13
25 9 5 -4 0 -12 -9 -17 -24 -13 -50 -40 -44 -46 2 -3 13 3 23 12 62 55 91 83
105 104 9 13 21 21 26 17 5 -3 10 -64 11 -135 l2 -130 -183 0 -183 -1 35 20
c19 11 42 25 50 30 8 6 22 13 30 17 8 4 20 11 25 15 6 5 19 15 30 23 11 7 16
17 12 22 -5 4 -13 0 -18 -10 -6 -9 -17 -17 -24 -17 -8 0 -15 -4 -15 -10 0 -5
-11 -12 -25 -16 -14 -3 -25 -9 -25 -13 0 -17 -118 -61 -162 -61 -26 0 -50 -4
-53 -10 -4 -6 31 -11 97 -12 97 -1 99 -2 38 -8 -43 -4 1 -7 133 -8 l197 -2 0
-45 0 -45 105 0 105 0 0 29 c0 27 4 30 53 43 69 17 395 17 455 0 37 -11 42
-16 42 -42 l0 -30 105 0 105 0 0 45 0 45 198 1 c113 1 182 5 162 9 l-35 7 35
2 c31 1 37 -3 47 -28 10 -27 9 -29 -21 -39 -30 -10 -30 -10 17 -11 44 -1 62
-13 35 -24 -10 -4 -10 -6 0 -6 18 -1 28 29 12 39 -9 6 -9 13 -1 28 9 17 8 23
-6 31 -17 10 -17 10 0 11 9 0 17 5 17 10 0 6 -22 10 -49 10 -56 0 -171 44
-171 66 0 8 -6 11 -15 8 -8 -4 -17 1 -21 10 -3 9 -12 16 -19 16 -18 0 -81 57
-72 66 4 4 15 0 25 -9 10 -10 24 -17 31 -17 6 0 14 -7 17 -15 4 -8 10 -13 14
-10 5 3 15 -2 23 -10 9 -8 20 -15 25 -15 6 0 30 -10 54 -21 75 -38 152 -64
143 -49 -4 6 -11 10 -17 10 -31 0 -221 96 -311 157 -51 35 -74 46 -67 33 6
-11 17 -20 25 -20 16 0 30 -18 21 -27 -7 -7 -66 46 -66 60 0 4 -15 25 -34 45
-32 33 -34 41 -34 98 0 34 -4 70 -10 80 -9 16 -10 16 -16 -4 -14 -43 -35 -18
-37 41 -1 36 -5 29 -14 -25 -7 -44 -22 -49 -31 -12 l-7 26 -13 -32 c-8 -18
-14 -48 -14 -66 0 -34 0 -34 -47 -35 -27 -1 -52 -1 -58 1 -5 1 -46 2 -90 2
-48 0 -83 5 -87 12 -6 8 -10 8 -15 -1 -5 -7 -46 -11 -114 -11 -58 -1 -110 -2
-115 -3 -5 -1 -28 -1 -51 0 -42 1 -43 2 -43 34 0 41 -10 77 -21 77 -5 0 -9 -7
-9 -15 0 -22 -21 -18 -27 5 -6 23 -23 27 -23 6 0 -25 -20 -28 -28 -5 -14 36
-26 5 -32 -80 l-5 -75 -87 -66 c-99 -75 -233 -151 -252 -144 -8 3 -11 15 -8
30 6 34 20 40 31 12 16 -42 24 6 12 73 -28 161 -168 279 -333 279 -42 0 -48 3
-48 21 0 15 5 19 15 15 9 -3 15 0 15 8 0 9 -7 12 -20 9 -14 -4 -20 -14 -20
-34 0 -24 -4 -29 -26 -29 -26 0 -26 5 -7 58 5 12 -48 16 -74 5z m1575 -401 l3
-132 -318 2 -318 3 0 120 c0 66 1 126 3 133 3 10 72 12 316 10 l311 -3 3 -133z
m210 70 c37 -37 86 -80 110 -95 23 -15 42 -32 42 -38 0 -5 4 -8 9 -4 5 3 16
-1 23 -9 8 -7 24 -17 36 -20 12 -4 22 -12 22 -17 0 -6 4 -8 8 -5 4 2 14 1 22
-4 9 -5 -28 -9 -93 -9 -104 -1 -107 0 -108 22 l-2 22 -4 -22 c-4 -21 -10 -23
-74 -23 l-69 0 0 135 c0 74 2 135 5 135 3 0 36 -30 73 -68z"/>
<path d="M5906 1895 c4 -26 1 -32 -25 -47 -17 -9 -31 -24 -31 -33 0 -16 57
-75 72 -75 4 0 29 14 55 30 26 17 53 30 60 30 12 0 12 16 -3 88 -5 27 -48 30
-76 6 -16 -16 -19 -15 -38 7 l-20 24 6 -30z"/>
<path d="M5737 2213 c-3 -5 36 -7 86 -6 102 3 137 -2 137 -18 0 -7 -39 -9
-115 -7 -112 3 -115 2 -115 -19 0 -16 5 -20 20 -16 11 3 20 1 20 -5 0 -5 25
-9 58 -8 67 3 94 -3 86 -16 -4 -6 -46 -9 -103 -7 -87 4 -96 2 -99 -15 -2 -10
1 -22 7 -25 8 -5 177 -7 239 -2 16 1 17 122 0 139 -13 13 -213 17 -221 5z"/>
<path d="M6002 2208 c-16 -16 -15 -33 1 -50 7 -7 20 -29 30 -49 16 -34 51 -57
62 -40 2 4 20 8 40 9 27 1 42 10 67 37 17 20 36 34 43 31 7 -2 18 4 25 14 8
11 17 17 22 14 4 -3 8 -1 8 3 0 8 -52 43 -64 43 -3 0 -6 -12 -6 -27 0 -36 -10
-48 -40 -49 -24 -1 -42 16 -46 45 -5 28 -22 35 -49 21 -20 -10 -28 -11 -37 -2
-15 15 -41 15 -56 0z"/>
<path d="M6488 2209 c-12 -6 -18 -22 -18 -44 l0 -34 128 -4 127 -3 -127 -2
-126 -2 -4 -55 -3 -55 38 0 c21 0 48 -5 59 -11 15 -8 24 -8 34 3 17 17 97 12
91 -6 -2 -6 -12 -10 -21 -10 -25 3 -19 -21 9 -36 22 -12 28 -12 43 4 16 16 16
18 0 30 -23 17 -23 26 2 26 11 0 20 6 21 13 0 6 4 2 9 -10 11 -28 20 -29 48
-4 23 19 28 41 13 57 -5 5 -11 18 -13 29 -2 14 -14 22 -38 26 l-35 6 38 2 c33
1 37 4 37 27 0 14 -5 34 -10 45 -10 17 -22 19 -148 19 -75 0 -145 -5 -154 -11z"/>
<path d="M6880 2101 c0 -5 -9 -11 -20 -14 -17 -4 -20 -14 -20 -71 0 -41 4 -66
11 -66 7 0 10 -32 7 -100 l-3 -100 43 0 c38 0 54 11 34 24 -9 6 -8 92 3 223
l7 81 -31 16 c-17 9 -31 12 -31 7z"/>
<path d="M1200 2078 c0 -5 50 -263 55 -285 11 -46 21 -20 44 105 13 70 26 139
28 155 l6 27 -67 0 c-36 0 -66 -1 -66 -2z"/>
<path d="M5419 2070 c-9 -5 -20 -26 -23 -45 -10 -49 -42 -69 -86 -53 -26 9
-35 9 -38 0 -2 -7 -10 -12 -18 -12 -17 0 -18 -13 -2 -57 7 -18 20 -36 30 -39
23 -7 116 35 168 77 54 44 61 72 24 110 -31 32 -32 33 -55 19z"/>
<path d="M207 1913 c-4 -3 -7 -68 -7 -144 0 -81 -4 -140 -10 -144 -29 -18 1
-25 109 -25 l118 0 7 38 c8 55 46 87 103 87 36 0 49 -5 68 -28 13 -15 27 -43
31 -62 l6 -35 179 0 179 0 0 25 c0 112 155 145 190 40 9 -29 17 -35 33 -33 18
2 23 11 25 42 5 57 -5 83 -36 98 -25 12 -27 18 -30 81 l-3 67 -478 0 c-263 0
-481 -3 -484 -7z m378 -83 l0 -45 -80 0 -80 0 -1 35 c-1 59 1 61 85 58 l76 -3
0 -45z m185 0 l0 -50 -80 0 -80 0 0 50 0 50 80 0 80 0 0 -50z m180 0 l0 -51
-77 3 -78 3 -3 33 c-6 58 0 62 83 62 l75 0 0 -50z"/>
<path d="M2375 1899 c-16 -5 -43 -19 -59 -32 l-29 -24 -44 25 c-44 24 -69 25
-278 13 -5 -1 -27 2 -48 5 -73 12 -127 -35 -127 -112 0 -33 59 -94 92 -94 13
0 29 -9 36 -21 25 -39 94 -60 190 -58 101 3 131 11 163 45 12 13 32 24 43 24
43 0 64 34 76 124 7 47 15 66 35 81 14 12 25 24 25 28 0 9 -37 7 -75 -4z"/>
<path d="M4764 1883 l-20 -27 -31 23 c-59 44 -103 10 -103 -80 0 -43 2 -47 29
-52 15 -3 48 -21 73 -40 l45 -35 41 27 c22 14 46 36 53 48 18 33 -2 72 -41 79
-23 5 -30 12 -30 29 0 13 6 25 13 28 8 3 9 8 1 16 -7 8 -15 4 -30 -16z"/>
<path d="M3770 1736 c0 -63 -3 -121 -6 -130 -5 -14 6 -16 89 -16 l95 0 5 28
c9 47 38 74 80 75 46 1 87 -34 87 -75 l0 -28 150 0 150 0 0 24 c0 40 41 80 83
80 40 0 77 -27 77 -55 0 -24 18 -33 35 -19 27 22 19 79 -15 108 -25 22 -30 34
-30 74 l0 48 -400 0 -400 0 0 -114z"/>
<path d="M1353 1783 c-35 -5 -46 -25 -61 -111 -9 -49 -8 -54 14 -71 38 -30
120 -46 234 -46 114 0 196 16 233 46 22 17 23 22 15 73 -13 87 -23 106 -55
106 -16 0 -38 3 -50 6 -17 5 -25 -1 -38 -25 -9 -18 -30 -41 -48 -51 -60 -37
-117 -20 -158 46 -11 19 -28 33 -37 32 -9 0 -31 -3 -49 -5z"/>
<path d="M2877 1763 c-4 -3 -7 -29 -7 -56 0 -27 -7 -64 -16 -83 -16 -33 -16
-35 7 -54 30 -24 38 -25 55 -2 7 9 14 12 14 6 0 -15 112 -6 122 10 5 6 8 2 8
-11 0 -24 33 -33 45 -12 4 6 14 8 22 5 8 -3 25 -3 39 0 23 6 24 10 23 82 -2
126 3 122 -164 122 -78 0 -145 -3 -148 -7z"/>
<path d="M477 1690 c-62 -49 -30 -139 50 -140 69 0 102 96 47 139 -33 26 -64
27 -97 1z"/>
<path d="M1035 1685 c-16 -15 -25 -36 -25 -55 0 -19 9 -40 25 -55 15 -16 36
-25 55 -25 19 0 40 9 55 25 16 15 25 36 25 55 0 19 -9 40 -25 55 -15 16 -36
25 -55 25 -19 0 -40 -9 -55 -25z"/>
<path d="M239 1305 c-14 -8 -32 -27 -38 -43 -13 -31 -11 -119 2 -114 4 1 140
2 302 2 l295 0 0 60 c0 51 -4 65 -25 85 l-24 25 -243 0 c-190 -1 -249 -4 -269
-15z"/>
<path d="M915 1293 c6 -26 -4 -29 -25 -10 -12 10 -12 9 -1 -6 9 -10 11 -29 7
-48 -3 -19 -1 -38 5 -45 17 -21 31 -17 24 6 -18 56 43 87 67 34 l12 -25 12 23
12 23 7 -27 c4 -15 13 -29 21 -32 28 -11 104 11 129 38 23 25 20 30 -17 27
-11 -2 -23 11 -32 33 -14 33 -17 35 -41 26 -18 -7 -31 -6 -45 2 -23 15 -54 -7
-47 -34 6 -22 5 -22 -40 2 -33 17 -37 25 -10 21 4 0 7 3 7 8 0 5 -11 8 -25 7
-22 -1 -25 -5 -20 -23z"/>
<path d="M1246 1291 c3 -16 1 -31 -4 -35 -7 -4 -7 -17 -2 -34 20 -67 10 -68
161 9 77 39 137 74 134 78 -2 5 -40 0 -82 -10 -43 -10 -87 -18 -98 -18 -11 1
1 6 27 13 78 19 66 26 -40 26 l-101 0 5 -29z"/>
<path d="M2545 1310 c-4 -6 -1 -17 5 -25 11 -13 6 -15 -32 -15 -24 0 -53 -7
-64 -15 -10 -8 -35 -14 -54 -15 -27 0 -32 3 -20 11 12 8 11 9 -5 5 -11 -3 -38
-8 -60 -12 -57 -10 -209 -88 -258 -133 -23 -21 -89 -62 -147 -91 -58 -28 -132
-67 -165 -85 -33 -18 -71 -36 -85 -39 -19 -6 -136 -59 -159 -74 -6 -3 39 -96
75 -159 l25 -43 62 31 c34 18 71 41 82 51 12 11 77 49 145 85 69 36 148 78
175 93 28 15 70 31 95 35 46 7 240 103 240 119 0 4 11 17 25 28 14 11 25 27
25 37 0 20 22 42 65 64 17 8 38 31 49 51 19 36 54 61 42 30 -5 -14 -4 -15 8
-4 13 10 13 14 1 26 -7 8 -18 14 -24 14 -6 0 -11 9 -11 20 0 21 -24 28 -35 10z"/>
<path d="M6013 1309 c-8 -8 -47 -10 -122 -7 l-111 3 0 -48 c0 -47 1 -49 25
-43 20 5 25 3 25 -12 0 -26 11 -34 27 -21 18 15 16 27 -4 32 -10 3 6 5 35 6
28 0 52 -3 52 -8 0 -6 -12 -9 -27 -8 -23 2 -29 -3 -31 -23 -2 -21 4 -29 35
-43 37 -16 38 -16 58 4 l20 21 -22 15 c-12 8 -19 21 -16 29 6 16 49 19 58 4 3
-5 40 -10 82 -10 66 0 75 2 80 20 3 11 9 20 13 20 4 0 10 9 13 19 3 13 1 18
-8 14 -8 -3 -15 4 -17 19 -3 21 -8 23 -78 26 -47 2 -80 -2 -87 -9z"/>
<path d="M6584 1312 c-6 -4 -15 -22 -19 -39 -7 -34 1 -39 44 -34 7 2 10 -2 6
-8 -4 -8 20 -11 74 -11 47 0 81 -4 81 -10 0 -5 -6 -10 -12 -11 -31 -2 -116 0
-154 4 -32 4 -43 1 -52 -14 -10 -15 -8 -22 10 -38 11 -11 26 -17 32 -14 17 11
96 12 96 2 0 -9 -14 -13 -37 -10 -7 1 -13 -7 -13 -19 0 -11 4 -20 9 -20 5 0
11 -6 14 -12 3 -8 -5 -14 -22 -15 -35 -2 -62 14 -55 32 8 19 -25 33 -36 16
-10 -17 -70 13 -70 34 0 8 -4 15 -10 15 -5 0 -10 -4 -10 -10 0 -8 -30 0 -58
15 -1 1 5 18 13 38 19 46 19 51 -1 43 -12 -5 -14 -1 -8 16 6 20 5 21 -10 9
-12 -10 -16 -10 -16 -1 0 20 -26 -6 -40 -39 -9 -22 -21 -30 -52 -37 -23 -5
-43 -15 -46 -22 -3 -9 3 -10 23 -2 51 19 54 13 21 -55 -17 -36 -33 -64 -36
-62 -3 1 -38 18 -78 36 -49 23 -71 39 -68 48 3 7 1 13 -4 13 -6 0 -10 -6 -10
-12 0 -9 -3 -10 -8 -2 -4 6 -16 13 -27 16 -11 3 -29 9 -40 13 l-20 7 20 -17
c11 -9 61 -37 110 -62 50 -25 91 -46 93 -48 1 -1 -2 -13 -7 -27 -9 -24 -6 -27
41 -49 l50 -23 19 23 c13 16 24 21 36 16 17 -7 16 -8 -2 -16 l-20 -9 20 2 c25
3 164 -64 205 -98 20 -17 29 -32 25 -43 -4 -13 7 -23 45 -41 l51 -24 15 22 c8
12 20 19 26 16 6 -4 5 -9 -3 -15 -7 -4 -10 -11 -6 -15 3 -4 12 -2 20 4 10 8
30 3 80 -21 37 -17 67 -35 67 -38 0 -4 -30 2 -66 13 -36 11 -68 18 -70 15 -5
-4 115 -77 127 -77 5 0 11 11 15 25 7 28 8 29 35 15 13 -7 19 -7 19 0 0 5 -4
10 -8 10 -5 0 -18 9 -31 21 -12 12 -25 19 -28 15 -4 -4 -157 66 -171 79 -2 2
11 34 29 72 l32 68 18 -40 c10 -22 18 -49 19 -60 1 -19 1 -19 11 -1 9 14 8 20
-1 26 -9 6 -6 10 9 15 25 8 25 10 1 55 l-20 35 5 -45 5 -45 -14 30 c-17 35
-20 57 -7 70 5 6 12 21 16 34 6 20 4 23 -9 18 -9 -4 -16 -1 -16 6 0 25 -40 16
-57 -14 -20 -33 -20 -33 -53 -14 -16 9 -19 14 -9 15 8 0 21 -6 29 -12 12 -11
12 -10 1 4 -11 14 -8 19 18 33 31 15 44 42 17 32 -9 -4 -17 2 -21 14 -9 28 -1
33 24 17 15 -9 24 -10 29 -3 4 6 20 12 36 13 16 1 31 3 32 5 2 1 4 33 5 71 3
91 -4 96 -135 96 -56 0 -106 -4 -112 -8z m-44 -237 c82 -42 150 -81 150 -88 0
-23 -57 -122 -69 -119 -11 2 -293 141 -299 147 -3 3 60 135 65 135 1 0 70 -34
153 -75z"/>
<path d="M6392 1100 c-13 -22 -3 -27 16 -8 16 16 16 -2 0 -37 -13 -30 -33 -34
-25 -5 6 24 -8 27 -17 4 -3 -9 -6 -17 -6 -20 0 -2 58 -33 130 -69 l130 -65 21
41 c25 49 35 39 -116 117 -60 31 -112 58 -115 59 -3 2 -11 -6 -18 -17z"/>
<path d="M5032 1298 c-19 -24 -41 -88 -36 -103 8 -20 102 -67 127 -63 15 2 21
11 22 32 0 16 10 36 23 46 30 25 20 42 -44 73 -61 30 -77 33 -92 15z"/>
<path d="M2649 1227 c-30 -28 -78 -73 -107 -100 -29 -26 -52 -52 -52 -57 0 -6
63 23 140 62 77 40 140 76 140 81 0 9 -51 67 -59 67 -3 0 -31 -24 -62 -53z"/>
<path d="M6885 1248 c-4 -13 -14 -38 -22 -57 -11 -23 -14 -50 -10 -83 5 -43 4
-48 -13 -48 -23 0 -24 -10 -7 -82 l12 -53 6 45 c5 35 6 25 7 -42 1 -51 6 -88
12 -88 6 0 10 -6 10 -14 0 -8 5 -18 12 -22 8 -5 9 0 6 14 -5 18 -2 22 18 22
l24 0 2 128 c2 186 0 222 -10 235 -5 7 -12 24 -16 40 -8 33 -22 35 -31 5z"/>
<path d="M5251 1194 c-11 -14 -25 -23 -31 -19 -5 3 -10 3 -11 -2 0 -4 -1 -33
-2 -63 l-2 -55 109 -55 c75 -38 110 -51 113 -42 3 6 10 12 16 12 27 0 279
-134 293 -156 9 -13 20 -24 25 -24 9 0 79 132 79 150 0 6 -14 9 -30 8 -21 -2
-75 20 -170 67 -113 56 -139 73 -134 87 4 14 -15 27 -95 68 -55 27 -109 50
-120 50 -11 0 -29 -12 -40 -26z"/>
<path d="M1031 1135 c-25 -43 -44 -52 -74 -33 -16 11 -28 13 -45 5 -19 -9 -22
-15 -16 -41 3 -17 8 -34 11 -38 15 -26 154 15 193 57 23 25 23 27 8 53 -25 41
-52 40 -77 -3z"/>
<path d="M5564 1124 c-9 -20 -12 -40 -7 -45 7 -7 95 -34 238 -74 44 -12 66
-12 54 -1 -13 12 -255 156 -262 156 -4 0 -15 -16 -23 -36z"/>
<path d="M188 1030 l-3 -100 71 0 c71 0 72 0 78 30 12 64 102 66 121 2 8 -30
12 -32 53 -32 l45 0 -27 -21 c-31 -25 -35 -68 -7 -93 16 -14 19 -15 24 -2 4 9
14 12 27 9 16 -4 19 -2 14 11 -6 16 20 24 29 9 2 -5 2 -2 1 5 -2 7 7 12 22 12
19 0 25 4 20 15 -4 11 2 15 24 15 17 0 30 4 30 10 0 5 13 7 30 4 38 -8 60 10
60 47 0 45 -53 65 -85 32 -11 -11 -15 -26 -11 -45 5 -24 2 -28 -17 -27 -12 1
-33 5 -47 9 -22 7 -21 8 13 9 32 1 37 4 37 24 0 30 29 57 62 57 25 0 58 -27
58 -48 0 -19 31 -14 37 6 3 14 11 18 28 15 30 -6 42 14 21 35 -16 16 -18 16
-27 -1 -9 -16 -13 -15 -40 12 -21 22 -29 39 -29 65 l0 36 -304 0 -305 0 -3
-100z"/>
<path d="M4172 1088 c-19 -19 -16 -143 5 -159 13 -11 17 -11 20 -1 3 6 20 12
38 12 18 0 35 -6 38 -12 3 -10 7 -10 20 1 21 16 24 140 5 159 -16 16 -110 16
-126 0z"/>
<path d="M2687 1026 c-41 -15 -60 -28 -94 -66 -26 -29 -29 -45 -7 -36 20 8 54
-11 54 -29 0 -12 4 -13 19 -3 25 15 71 -3 71 -29 0 -13 3 -14 12 -5 7 7 20 12
29 12 21 0 51 -28 44 -41 -4 -5 -2 -9 4 -9 5 0 13 5 16 10 11 18 43 10 64 -16
12 -15 21 -22 21 -15 0 17 41 13 62 -6 17 -15 18 -14 18 23 0 54 -40 134 -84
171 -63 51 -151 66 -229 39z"/>
<path d="M5893 978 c-39 -41 -78 -120 -87 -174 l-7 -42 36 -6 c21 -4 38 -6 39
-4 11 14 106 209 106 217 0 5 -9 13 -20 16 -11 4 -18 11 -15 16 15 23 -24 6
-52 -23z"/>
<path d="M3683 975 c4 -11 13 -72 21 -135 79 -598 73 -560 91 -560 8 0 15 3
15 8 0 4 20 153 45 331 51 371 51 363 29 354 -9 -3 -20 0 -25 8 -8 12 -10 12
-19 -1 -7 -12 -13 -13 -28 -3 -15 9 -22 9 -31 0 -9 -9 -16 -9 -30 0 -16 10
-20 9 -25 -4 -6 -14 -9 -14 -28 3 -20 19 -21 19 -15 -1z"/>
<path d="M5937 849 c-32 -62 -56 -113 -55 -114 2 -2 111 -58 243 -125 132 -68
250 -129 262 -136 12 -8 28 -11 35 -8 7 3 36 53 65 110 l52 104 -37 23 c-40
25 -493 257 -502 257 -3 0 -31 -50 -63 -111z"/>
<path d="M4606 943 c-3 -3 -6 -15 -6 -25 0 -13 -8 -18 -29 -18 -62 0 -76 -23
-46 -80 14 -27 14 -29 -5 -35 -11 -4 -20 -14 -20 -24 0 -10 -11 -30 -25 -45
-35 -37 -32 -70 10 -113 l35 -36 0 62 c0 56 3 66 29 92 73 73 170 7 155 -105
-4 -25 -3 -46 2 -45 15 0 74 80 74 98 0 10 -13 31 -29 47 -20 21 -27 34 -21
44 7 11 12 9 28 -10 18 -23 21 -23 60 -11 25 9 44 23 51 38 11 24 10 25 -13
21 -18 -4 -27 1 -35 19 -11 25 -26 30 -36 13 -4 -6 -14 -10 -23 -9 -32 3 -41
-1 -44 -21 -2 -13 -7 -17 -16 -11 -11 6 -10 15 4 44 22 47 8 67 -48 67 -35 0
-40 2 -35 20 5 20 -5 35 -17 23z"/>
<path d="M2380 877 c-110 -55 -125 -65 -128 -89 -2 -15 2 -37 8 -48 10 -18 17
-21 46 -15 27 5 36 2 41 -11 3 -9 0 -20 -8 -25 -21 -13 -39 -11 -39 6 0 8 -5
15 -11 15 -7 0 -8 -7 -4 -17 7 -17 8 -63 2 -70 -2 -1 -18 2 -36 7 -29 8 -34 7
-38 -10 -3 -11 -10 -20 -15 -20 -6 0 -4 10 5 23 12 19 15 40 8 80 0 5 -13 7
-29 6 -15 -2 -38 4 -51 13 -18 13 -29 14 -43 7 -22 -12 -23 -26 -3 -73 9 -20
13 -41 10 -46 -9 -14 34 -32 83 -34 30 -1 52 4 68 17 26 20 44 23 91 12 26 -6
34 -4 39 9 3 9 0 24 -7 33 -13 15 -12 15 7 3 17 -11 28 -8 75 16 29 15 64 27
77 25 16 -2 25 3 28 16 3 10 23 26 45 35 l39 17 -22 45 c-12 25 -26 46 -30 46
-4 0 -8 8 -8 19 0 22 -44 71 -62 70 -7 0 -69 -28 -138 -62z"/>
<path d="M4203 886 c2 -25 -3 -30 -30 -38 -39 -10 -43 -27 -42 -165 1 -94 3
-103 20 -103 18 0 19 -10 19 -169 0 -103 -4 -172 -10 -176 -5 -3 -10 -15 -10
-26 0 -17 8 -19 85 -19 77 0 85 2 85 19 0 11 -4 23 -10 26 -6 4 -10 73 -10
176 0 144 2 169 15 169 16 0 17 4 21 115 4 112 -3 144 -34 151 -45 11 -55 24
-36 45 10 11 12 19 7 19 -6 0 -13 -7 -17 -15 -7 -20 -33 -19 -45 3 -8 14 -10
12 -8 -12z"/>
<path d="M4350 865 c0 -26 40 -316 46 -334 11 -32 15 -12 59 315 l6 40 -56 0
c-48 -1 -55 -4 -55 -21z"/>
<path d="M1296 743 c-82 -42 -130 -73 -134 -85 -3 -14 -7 -16 -18 -7 -11 9
-14 7 -14 -12 0 -13 -4 -19 -8 -14 -4 6 -15 11 -24 13 -17 3 -25 -20 -19 -52
1 -5 -6 -5 -16 -2 -16 6 -16 5 -3 -8 24 -23 70 -9 85 26 l12 30 23 -39 c14
-24 23 -53 22 -80 0 -49 0 -49 51 -58 32 -6 39 -5 43 11 3 11 31 31 70 48 35
16 64 32 64 36 0 3 14 5 30 2 25 -3 30 -1 30 16 0 13 9 21 28 25 15 3 35 12
44 19 17 12 16 16 -12 66 -28 48 -33 51 -53 42 l-22 -11 22 17 c21 15 22 17 5
42 -36 58 -48 56 -206 -25z"/>
<path d="M4856 727 c-21 -12 -46 -32 -54 -44 -14 -22 -13 -23 12 -23 14 0 26
-5 26 -11 0 -6 9 -9 20 -6 10 3 27 -1 36 -8 10 -7 25 -10 34 -8 9 3 24 -3 33
-11 8 -9 23 -13 31 -10 9 3 23 1 31 -6 9 -7 30 -14 49 -15 33 -2 33 -2 25 33
-25 111 -146 165 -243 109z"/>
<path d="M2017 640 c-7 -32 -9 -33 -19 -15 -11 19 -11 19 -19 0 -4 -11 -8 -38
-8 -61 -1 -31 -8 -47 -30 -68 -16 -16 -27 -35 -24 -42 4 -10 10 -7 25 11 11
14 24 25 29 25 15 0 11 -190 -3 -191 -7 -1 -66 -2 -130 -3 -94 -1 -118 2 -118
13 0 10 -3 11 -14 2 -7 -6 -32 -14 -55 -17 -34 -5 -45 -2 -56 12 -13 18 -14
18 -32 1 -11 -9 -23 -14 -26 -11 -10 10 -37 -16 -37 -36 0 -10 -10 -20 -22
-24 l-23 -6 21 -14 c24 -17 90 -18 103 -2 5 6 11 22 13 36 l3 25 170 -4 c94
-2 173 -5 178 -8 4 -2 7 -17 7 -34 l0 -29 74 0 c69 0 75 2 78 22 2 18 13 24
63 35 74 15 212 15 285 0 45 -10 56 -16 58 -34 3 -22 8 -23 77 -23 l74 0 3 33
3 32 162 5 c89 3 164 8 168 12 3 3 -13 9 -37 13 -24 4 -49 12 -55 17 -9 7 -13
6 -13 -3 0 -21 -110 -20 -110 1 -1 13 -2 13 -9 0 -7 -11 -27 -15 -73 -15 l-63
0 -3 98 c-3 102 4 117 34 71 13 -19 19 -22 25 -12 6 9 9 7 9 -9 0 -14 12 -29
34 -43 23 -13 36 -30 39 -48 4 -25 4 -25 6 5 1 24 -4 33 -19 38 -11 3 -20 11
-20 16 0 14 9 11 42 -12 16 -12 31 -19 34 -17 2 3 -24 23 -58 46 -107 69 -122
86 -120 135 2 43 -15 84 -25 59 -8 -19 -23 -3 -24 26 -1 25 -2 24 -11 -8 -9
-30 -11 -32 -20 -16 -14 24 -28 4 -28 -41 l0 -32 -92 0 c-51 0 -98 5 -104 10
-9 7 -19 7 -32 0 -11 -6 -65 -10 -121 -10 -81 0 -101 3 -102 14 -1 8 -3 20 -4
25 -1 6 -3 20 -4 33 -2 21 -2 21 -16 3 -15 -20 -19 -16 -27 29 -3 14 -6 9 -11
-15z m518 -247 l0 -98 -230 0 -230 0 -3 97 -3 97 28 3 c15 2 120 2 233 1 l205
-3 0 -97z"/>
<path d="M2132 468 c-7 -7 -12 -41 -12 -81 l0 -69 29 5 c16 3 31 3 35 0 10
-10 161 -7 180 4 15 8 16 14 7 31 -6 11 -11 38 -11 59 0 22 -5 44 -12 51 -16
16 -200 16 -216 0z"/>
<path d="M6618 603 c-9 -10 -19 -27 -22 -39 -7 -24 3 -61 13 -46 4 7 15 5 31
-4 22 -13 22 -15 4 -11 -17 4 -20 1 -17 -14 6 -21 -8 -24 -38 -9 -15 9 -17 15
-9 30 7 12 7 20 1 20 -5 0 -12 -9 -16 -19 -3 -10 -14 -21 -25 -24 -23 -6 -38
-36 -23 -46 6 -3 12 -15 14 -26 5 -24 38 -33 50 -13 5 7 9 8 9 2 0 -6 25 -23
56 -39 47 -24 59 -26 75 -17 18 11 18 11 7 -8 -11 -18 -10 -23 5 -35 22 -16
44 -10 50 13 4 13 5 12 6 -4 1 -13 14 -26 36 -37 42 -20 45 -20 45 -7 0 6 16
43 35 82 57 115 55 120 -100 200 -71 37 -139 67 -151 68 -11 0 -28 -8 -36 -17z"/>
<path d="M5269 583 c-1 -10 -1 -23 0 -29 1 -7 -42 -11 -129 -12 -72 0 -139 -4
-150 -7 -22 -7 -28 -23 -32 -85 l-3 -45 250 0 250 0 -2 50 c-2 65 -25 85 -99
85 -29 0 -56 5 -59 10 -3 6 -1 10 4 10 17 0 13 27 -5 34 -22 9 -24 8 -25 -11z"/>
<path d="M2731 547 c-11 -19 -21 -42 -21 -51 0 -45 211 -123 266 -97 21 9 24
17 24 60 0 44 -3 49 -25 55 -16 4 -34 1 -48 -9 -45 -31 -95 -13 -111 43 -4 12
-13 22 -21 22 -7 0 -20 3 -28 6 -9 3 -22 -7 -36 -29z"/>
<path d="M1625 515 c-49 -27 -80 -50 -80 -60 0 -21 -213 -137 -237 -129 -29 9
-28 -12 3 -70 33 -61 43 -67 59 -36 14 26 27 25 35 -1 9 -27 37 -20 42 10 3
19 0 22 -17 18 -44 -11 -15 10 77 58 66 34 98 46 101 37 3 -9 31 2 92 34 l89
47 -3 45 c-1 29 -8 48 -17 50 -8 3 -20 13 -27 24 -18 25 -25 23 -117 -27z"/>
<path d="M882 534 c-15 -11 -22 -25 -22 -50 0 -24 -5 -34 -15 -34 -8 0 -23 -8
-34 -19 -18 -18 -18 -19 0 -42 13 -17 19 -20 20 -9 1 8 5 -3 9 -25 6 -32 4
-44 -13 -67 -11 -15 -19 -29 -16 -32 2 -2 27 0 56 3 55 8 81 28 108 86 11 24
14 26 15 10 l1 -20 9 20 c10 23 13 81 4 72 -7 -7 -44 60 -44 80 0 11 -37 43
-50 43 -3 0 -16 -7 -28 -16z"/>
<path d="M4445 460 c-11 -4 -29 -6 -40 -3 -33 7 -54 -27 -67 -111 -11 -74 -11
-79 8 -93 44 -32 127 -48 259 -48 145 0 233 16 271 49 25 21 25 23 14 86 -16
90 -33 120 -68 118 -15 -1 -37 1 -49 5 -18 7 -25 3 -37 -20 -59 -114 -177
-120 -238 -14 -13 23 -25 41 -28 40 -3 0 -14 -4 -25 -9z"/>
<path d="M4957 384 c-4 -4 -7 -20 -7 -34 0 -15 -7 -33 -15 -40 -21 -17 -20
-74 0 -66 11 4 19 -3 25 -19 13 -35 56 -34 72 0 10 21 9 29 -5 43 -14 14 -22
14 -48 5 -26 -10 -29 -10 -19 3 25 29 84 9 91 -31 4 -17 14 -20 74 -23 89 -4
115 3 115 28 0 50 95 48 102 -2 3 -21 8 -23 61 -24 l58 -1 -3 81 -3 81 -246 3
c-135 1 -248 -1 -252 -4z"/>
<path d="M740 328 c-30 -23 -59 -48 -63 -55 -4 -7 -13 -13 -20 -13 -7 0 -18
-9 -25 -20 -11 -18 -9 -22 15 -31 16 -6 44 -8 63 -4 19 4 43 7 52 8 9 1 14 5
11 10 -3 4 2 16 11 26 20 22 31 83 20 104 -8 14 -18 10 -64 -25z"/>
<path d="M381 289 c-63 -33 -117 -62 -120 -64 -13 -14 15 -11 118 11 63 14
116 23 118 20 6 -6 -94 -36 -118 -36 -10 0 -21 -4 -24 -10 -4 -6 28 -10 90
-10 l96 0 -5 54 c-4 53 -20 96 -34 96 -4 0 -59 -28 -121 -61z"/>
</g>
</svg>
