<?xml version="1.0" standalone="no"?>
<!DOCTYPE svg PUBLIC "-//W3C//DTD SVG 20010904//EN"
 "http://www.w3.org/TR/2001/REC-SVG-20010904/DTD/svg10.dtd">
<svg version="1.0" xmlns="http://www.w3.org/2000/svg"
 width="612.000000pt" height="433.000000pt" viewBox="0 0 612.000000 433.000000"
 preserveAspectRatio="xMidYMid meet">
<metadata>
Created by potrace 1.16, written by Peter Selinger 2001-2019
</metadata>
<g transform="translate(0.000000,433.000000) scale(0.100000,-0.100000)"
fill="#000000" stroke="none">
<path d="M3046 2846 c-3 -66 -6 -186 -6 -267 l0 -148 43 -5 c23 -3 90 -7 149
-9 101 -5 107 -4 112 16 3 12 4 23 2 24 -2 2 -49 6 -106 10 l-102 6 6 76 c3
42 8 153 12 246 l7 170 -55 0 -55 0 -7 -119z"/>
<path d="M2693 2949 c-85 -25 -147 -146 -147 -289 0 -137 50 -225 144 -250
107 -29 190 58 190 198 l0 45 -52 -7 c-29 -3 -65 -6 -80 -6 -18 0 -28 -5 -28
-15 0 -11 11 -15 40 -15 39 0 40 -1 42 -37 3 -89 -6 -118 -41 -133 -57 -23
-91 18 -112 135 -19 109 5 269 47 316 18 20 69 26 79 9 3 -5 9 -28 13 -51 6
-37 11 -42 35 -43 42 -2 50 7 43 46 -13 71 -98 119 -173 97z"/>
<path d="M3510 2833 c-7 -49 -25 -165 -39 -260 -27 -172 -27 -172 -6 -177 38
-11 64 -6 69 12 18 65 79 483 71 491 -6 5 -26 11 -46 15 l-36 6 -13 -87z"/>
<path d="M2292 2852 c-25 -4 -27 14 24 -191 19 -73 34 -138 34 -143 0 -5 -35
19 -77 54 -241 198 -232 192 -257 180 l-23 -10 33 -99 c127 -369 125 -363 150
-363 32 0 31 11 -17 141 -22 61 -38 113 -35 116 2 3 61 -38 129 -91 120 -92
165 -113 182 -86 6 10 -102 481 -113 491 -4 3 -17 3 -30 1z"/>
<path d="M3875 2824 c-114 -59 -126 -154 -31 -247 65 -64 76 -84 76 -140 0
-55 -23 -79 -76 -79 -51 0 -74 29 -74 91 0 46 0 46 -45 62 l-45 17 0 -49 c0
-63 28 -110 82 -136 90 -45 158 -39 216 17 72 68 60 176 -25 240 -73 55 -94
130 -48 175 28 29 70 32 104 9 21 -15 23 -22 17 -70 l-6 -54 36 -15 c20 -8 38
-15 39 -15 9 0 11 70 3 100 -12 44 -33 67 -80 91 -45 23 -103 24 -143 3z"/>
<path d="M4332 2644 c-6 -7 -12 -15 -12 -18 0 -3 -47 -96 -105 -207 -77 -149
-101 -205 -92 -211 45 -31 69 -39 83 -27 8 6 14 18 14 25 0 8 4 14 9 14 5 0
14 14 21 30 7 17 16 30 21 30 12 0 119 -60 119 -67 0 -3 -13 -28 -30 -55 -16
-26 -30 -52 -30 -57 0 -7 64 -51 74 -51 3 0 100 146 215 325 28 43 50 83 48
88 -1 5 -21 20 -44 34 l-42 24 -12 -23 c-11 -21 -137 -218 -145 -227 -5 -6
-75 27 -103 48 l-24 18 42 70 c22 38 41 72 41 76 0 3 14 29 30 57 17 28 30 53
30 55 0 2 -21 17 -48 33 -39 24 -50 27 -60 16z"/>
<path d="M1660 2566 c-79 -46 -146 -88 -147 -93 -6 -16 201 -413 215 -413 4 0
21 8 37 18 17 10 75 42 130 72 55 29 104 56 109 61 6 5 5 19 -2 35 l-12 26
-95 -51 c-53 -28 -99 -51 -104 -51 -8 0 -71 124 -71 139 1 3 41 26 91 51 50
25 93 48 95 52 3 4 0 17 -6 28 -14 25 -22 23 -127 -33 l-80 -43 -32 59 c-17
33 -30 61 -29 62 2 2 46 26 98 55 52 29 96 54 98 56 2 1 -2 14 -10 27 l-13 25
-145 -82z"/>
<path d="M2175 534 c-259 -13 -644 -32 -857 -42 -399 -19 -418 -22 -418 -62 0
-34 27 -44 118 -42 94 3 566 25 907 43 703 37 725 37 785 15 51 -19 77 -21
355 -21 280 1 304 2 355 22 52 19 67 20 200 12 372 -20 1348 -68 1470 -71
l114 -3 10 28 c20 56 25 56 -505 82 -266 13 -581 29 -699 35 -522 27 -553 28
-588 13 -18 -8 -50 -16 -70 -18 -20 -2 -73 -9 -117 -16 -88 -13 -318 -6 -407
12 -29 6 -66 12 -83 14 -16 2 -43 8 -58 14 -16 6 -31 10 -35 10 -4 -1 -218
-12 -477 -25z"/>
</g>
</svg>
