<?xml version="1.0" standalone="no"?>
<!DOCTYPE svg PUBLIC "-//W3C//DTD SVG 20010904//EN"
 "http://www.w3.org/TR/2001/REC-SVG-20010904/DTD/svg10.dtd">
<svg version="1.0" xmlns="http://www.w3.org/2000/svg"
 width="612.000000pt" height="433.000000pt" viewBox="0 0 612.000000 433.000000"
 preserveAspectRatio="xMidYMid meet">

<g transform="translate(0.000000,433.000000) scale(0.100000,-0.100000)"
fill="#000000" stroke="none">
<path d="M2671 3994 c0 -11 3 -14 6 -6 3 7 2 16 -1 19 -3 4 -6 -2 -5 -13z"/>
<path d="M2773 3970 c0 -25 2 -35 4 -22 2 12 2 32 0 45 -2 12 -4 2 -4 -23z"/>
<path d="M3963 3988 c-15 -20 -25 -38 -20 -38 3 0 12 11 21 25 17 26 16 35 -1
13z"/>
<path d="M2682 3930 c0 -14 2 -19 5 -12 2 6 2 18 0 25 -3 6 -5 1 -5 -13z"/>
<path d="M2586 3927 c3 -10 9 -15 12 -12 3 3 0 11 -7 18 -10 9 -11 8 -5 -6z"/>
<path d="M3061 3894 c0 -11 3 -14 6 -6 3 7 2 16 -1 19 -3 4 -6 -2 -5 -13z"/>
<path d="M3080 3897 c0 -10 8 -17 18 -17 9 0 13 4 7 8 -5 4 -13 11 -17 16 -5
5 -8 2 -8 -7z"/>
<path d="M3895 3880 c-9 -16 -13 -30 -11 -30 3 0 12 14 21 30 9 17 13 30 11
30 -3 0 -12 -13 -21 -30z"/>
<path d="M2601 3884 c0 -11 3 -14 6 -6 3 7 2 16 -1 19 -3 4 -6 -2 -5 -13z"/>
<path d="M3120 3885 c0 -8 2 -15 4 -15 2 0 6 7 10 15 3 8 1 15 -4 15 -6 0 -10
-7 -10 -15z"/>
<path d="M3989 3883 c-13 -16 -12 -17 4 -4 16 13 21 21 13 21 -2 0 -10 -8 -17
-17z"/>
<path d="M3791 3844 c0 -11 3 -14 6 -6 3 7 2 16 -1 19 -3 4 -6 -2 -5 -13z"/>
<path d="M2995 3840 c-16 -7 -17 -9 -3 -9 9 -1 20 4 23 9 7 11 7 11 -20 0z"/>
<path d="M2828 3833 c6 -2 18 -2 25 0 6 3 1 5 -13 5 -14 0 -19 -2 -12 -5z"/>
<path d="M3866 3823 c-6 -14 -5 -15 5 -6 7 7 10 15 7 18 -3 3 -9 -2 -12 -12z"/>
<path d="M3028 3823 c7 -3 16 -2 19 1 4 3 -2 6 -13 5 -11 0 -14 -3 -6 -6z"/>
<path d="M3054 3805 c-10 -8 -14 -15 -8 -15 6 0 17 7 24 15 16 19 9 19 -16 0z"/>
<path d="M1220 3806 c0 -2 7 -7 16 -10 8 -3 12 -2 9 4 -6 10 -25 14 -25 6z"/>
<path d="M2157 3795 c-4 -11 -10 -27 -13 -35 -3 -8 1 -5 11 8 9 12 15 28 13
34 -3 7 -7 4 -11 -7z"/>
<path d="M3508 3803 c7 -3 16 -2 19 1 4 3 -2 6 -13 5 -11 0 -14 -3 -6 -6z"/>
<path d="M1260 3786 c0 -2 7 -7 16 -10 8 -3 12 -2 9 4 -6 10 -25 14 -25 6z"/>
<path d="M2372 3765 c-11 -13 -21 -22 -24 -20 -3 3 -5 -2 -5 -10 0 -11 4 -12
13 -4 9 7 13 5 16 -8 2 -11 8 -1 15 25 6 23 9 42 8 42 -2 0 -12 -11 -23 -25z"/>
<path d="M3265 3770 c-24 -10 -77 -64 -54 -55 11 4 25 -5 43 -25 14 -17 26
-28 26 -24 0 4 -12 21 -27 36 -25 27 -26 29 -10 45 16 16 19 15 57 -22 22 -21
40 -35 40 -30 0 4 9 0 20 -10 28 -25 25 -43 -2 -19 l-23 19 19 -23 c11 -12 21
-20 24 -17 3 3 12 -1 21 -8 19 -15 -23 45 -44 63 -8 7 -15 9 -15 4 0 -4 -11 3
-25 16 -34 32 -32 50 3 19 26 -23 26 -23 -2 9 -17 17 -30 32 -30 31 -1 0 -10
-4 -21 -9z"/>
<path d="M2860 3741 c0 -17 4 -32 8 -35 4 -2 6 11 4 30 -5 42 -12 45 -12 5z"/>
<path d="M1320 3756 c0 -3 9 -10 20 -16 11 -6 20 -8 20 -6 0 3 -9 10 -20 16
-11 6 -20 8 -20 6z"/>
<path d="M2225 3750 c4 -6 11 -8 16 -5 14 9 11 15 -7 15 -8 0 -12 -5 -9 -10z"/>
<path d="M1867 3733 c-15 -14 -6 -25 10 -12 15 12 16 12 10 -4 -4 -11 -3 -16
3 -12 15 9 12 35 -3 35 -8 0 -17 -3 -20 -7z"/>
<path d="M1916 3725 c-3 -8 -1 -15 4 -15 6 0 10 7 10 15 0 8 -2 15 -4 15 -2 0
-6 -7 -10 -15z"/>
<path d="M2096 3731 c-19 -7 -19 -8 3 -14 17 -4 22 -11 17 -22 -3 -9 -2 -13 4
-10 14 9 12 35 -2 36 -7 0 -4 4 7 9 25 11 -2 12 -29 1z"/>
<path d="M3250 3736 c0 -2 8 -10 18 -17 15 -13 16 -12 3 4 -13 16 -21 21 -21
13z"/>
<path d="M3498 3733 c7 -3 16 -2 19 1 4 3 -2 6 -13 5 -11 0 -14 -3 -6 -6z"/>
<path d="M1380 3716 c0 -3 9 -10 20 -16 11 -6 20 -8 20 -6 0 3 -9 10 -20 16
-11 6 -20 8 -20 6z"/>
<path d="M1830 3700 c0 -5 5 -10 11 -10 5 0 7 5 4 10 -3 6 -8 10 -11 10 -2 0
-4 -4 -4 -10z"/>
<path d="M2775 3700 c-3 -6 1 -7 9 -4 18 7 21 14 7 14 -6 0 -13 -4 -16 -10z"/>
<path d="M4548 3703 c6 -2 18 -2 25 0 6 3 1 5 -13 5 -14 0 -19 -2 -12 -5z"/>
<path d="M1915 3680 c10 -11 20 -20 23 -20 3 0 -3 9 -13 20 -10 11 -20 20 -23
20 -3 0 3 -9 13 -20z"/>
<path d="M2150 3690 c-24 -15 -7 -18 20 -3 14 7 18 13 10 13 -8 0 -22 -4 -30
-10z"/>
<path d="M2646 3687 c3 -10 9 -15 12 -12 3 3 0 11 -7 18 -10 9 -11 8 -5 -6z"/>
<path d="M2818 3671 c5 -34 -12 -48 -36 -30 -16 12 -16 12 0 -6 14 -15 20 -16
32 -5 17 13 22 55 8 64 -5 3 -7 -8 -4 -23z"/>
<path d="M3131 3683 c-21 -18 -21 -18 29 -51 28 -17 50 -30 50 -27 0 2 -18 17
-40 31 -39 26 -51 44 -28 44 6 0 27 -12 47 -27 33 -25 34 -25 16 -3 -20 23
-20 23 0 16 11 -4 16 -3 11 1 -4 4 -18 8 -29 8 -12 0 -21 6 -19 13 3 17 -12
15 -37 -5z"/>
<path d="M3736 3682 c19 -12 35 -52 29 -71 -3 -10 -14 -26 -25 -36 -11 -10
-20 -25 -19 -34 0 -14 1 -14 6 -1 3 8 17 28 30 44 18 22 23 36 18 55 -8 31
-23 51 -39 51 -8 0 -8 -2 0 -8z"/>
<path d="M3310 3673 c0 -5 10 -18 23 -29 l22 -19 -20 25 c-11 14 -21 27 -22
29 -2 2 -3 0 -3 -6z"/>
<path d="M1885 3661 c-3 -5 -2 -12 3 -15 5 -3 9 1 9 9 0 17 -3 19 -12 6z"/>
<path d="M2105 3660 c-3 -5 -2 -10 4 -10 5 0 13 5 16 10 3 6 2 10 -4 10 -5 0
-13 -4 -16 -10z"/>
<path d="M3882 3604 c-1 -39 -9 -90 -17 -113 -8 -23 -11 -39 -6 -37 17 11 32
93 28 156 l-3 65 -2 -71z"/>
<path d="M1230 3650 c8 -5 20 -10 25 -10 6 0 3 5 -5 10 -8 5 -19 10 -25 10 -5
0 -3 -5 5 -10z"/>
<path d="M3682 3648 c-7 -7 -12 -16 -12 -22 0 -5 6 -3 13 6 6 9 21 18 32 21
20 5 20 5 0 6 -12 0 -26 -4 -33 -11z"/>
<path d="M4420 3639 c-7 -11 -10 -23 -7 -25 2 -2 9 7 15 21 14 30 7 33 -8 4z"/>
<path d="M1956 3633 c-6 -14 -5 -15 5 -6 7 7 10 15 7 18 -3 3 -9 -2 -12 -12z"/>
<path d="M3083 3643 c-17 -6 -16 -20 1 -26 10 -4 13 -1 9 9 -7 19 3 18 40 -7
l32 -21 -30 26 c-31 27 -32 27 -52 19z"/>
<path d="M4676 3635 c4 -11 10 -38 14 -60 l7 -40 1 35 c1 19 -6 46 -14 60 -10
16 -13 18 -8 5z"/>
<path d="M5075 3640 c-3 -6 1 -7 9 -4 18 7 21 14 7 14 -6 0 -13 -4 -16 -10z"/>
<path d="M2670 3631 c1 -3 7 -17 15 -31 l14 -25 -1 31 c-1 19 -6 31 -14 31 -8
0 -14 -3 -14 -6z"/>
<path d="M2725 3620 c10 -11 20 -20 23 -20 3 0 -3 9 -13 20 -10 11 -20 20 -23
20 -3 0 3 -9 13 -20z"/>
<path d="M1310 3620 c8 -5 20 -10 25 -10 6 0 3 5 -5 10 -8 5 -19 10 -25 10 -5
0 -3 -5 5 -10z"/>
<path d="M3389 3617 c8 -9 16 -15 19 -12 3 3 12 -1 21 -8 14 -11 14 -10 2 6
-8 9 -16 15 -19 12 -3 -3 -12 1 -21 8 -14 11 -14 10 -2 -6z"/>
<path d="M3819 3570 c-3 -36 -9 -74 -13 -85 -3 -11 1 -5 9 14 10 20 15 53 13
85 l-3 51 -6 -65z"/>
<path d="M3034 3598 c-43 -50 -58 -71 -47 -65 6 4 26 25 43 47 34 43 37 55 4
18z"/>
<path d="M3366 3607 c3 -10 9 -15 12 -12 3 3 0 11 -7 18 -10 9 -11 8 -5 -6z"/>
<path d="M1683 3595 c-3 -9 -3 -19 1 -22 3 -4 6 1 6 10 0 8 8 18 18 20 16 4
16 5 -1 6 -10 0 -20 -6 -24 -14z"/>
<path d="M3115 3603 c19 -19 88 -57 80 -43 -6 10 -4 12 8 7 25 -9 21 -2 -10
19 -24 15 -26 15 -14 1 18 -22 10 -21 -36 5 -21 12 -33 17 -28 11z"/>
<path d="M3260 3606 c0 -3 25 -24 55 -47 67 -50 66 -63 -2 -19 -29 19 -37 22
-21 8 37 -32 93 -64 83 -48 -5 8 -3 11 6 8 8 -3 13 -11 11 -17 -1 -7 2 -10 8
-6 5 3 10 8 10 9 0 2 -34 29 -75 60 -41 31 -75 54 -75 52z"/>
<path d="M4985 3584 l-30 -26 33 22 c17 12 32 23 32 26 0 7 -4 5 -35 -22z"/>
<path d="M2631 3568 c0 -20 -7 -39 -13 -41 -10 -4 -10 -6 0 -6 17 -1 24 21 19
56 -3 24 -4 23 -6 -9z"/>
<path d="M3220 3596 c0 -3 9 -10 20 -16 11 -6 20 -8 20 -6 0 3 -9 10 -20 16
-11 6 -20 8 -20 6z"/>
<path d="M4401 3584 c0 -11 3 -14 6 -6 3 7 2 16 -1 19 -3 4 -6 -2 -5 -13z"/>
<path d="M1380 3586 c0 -2 7 -7 16 -10 8 -3 12 -2 9 4 -6 10 -25 14 -25 6z"/>
<path d="M3340 3587 c0 -2 15 -16 33 -33 l32 -29 -29 33 c-28 30 -36 37 -36
29z"/>
<path d="M3419 3578 c7 -10 18 -15 24 -11 6 4 8 0 4 -10 -4 -10 -2 -16 5 -14
6 1 13 -4 15 -10 3 -7 -3 -13 -12 -13 -15 0 -15 -1 -1 -16 16 -15 22 -44 9
-44 -3 0 -16 8 -27 18 -13 10 -16 11 -9 2 10 -14 13 -21 13 -36 0 -3 14 3 30
13 17 9 30 22 30 27 0 16 -51 98 -57 92 -4 -3 -13 0 -22 7 -14 11 -14 10 -2
-5z m65 -74 c3 -8 2 -12 -4 -9 -6 3 -10 10 -10 16 0 14 7 11 14 -7z"/>
<path d="M1752 3535 c-13 -27 -16 -42 -9 -42 7 0 21 -4 32 -8 l20 -7 -20 13
c-11 6 -21 13 -23 14 -1 1 3 15 10 29 9 21 17 27 35 23 26 -5 22 8 -5 15 -15
4 -24 -5 -40 -37z"/>
<path d="M3405 3560 c10 -11 20 -20 23 -20 3 0 -3 9 -13 20 -10 11 -20 20 -23
20 -3 0 3 -9 13 -20z"/>
<path d="M1708 3543 c4 -23 2 -25 -18 -20 -16 4 -20 3 -12 -5 6 -6 18 -8 26
-5 17 7 22 42 7 51 -4 3 -6 -6 -3 -21z"/>
<path d="M2255 3554 c-16 -8 -37 -22 -45 -31 -8 -9 1 -5 20 8 27 18 48 24 92
24 31 0 51 3 45 7 -20 13 -81 9 -112 -8z"/>
<path d="M3982 3540 c0 -19 2 -27 5 -17 2 9 2 25 0 35 -3 9 -5 1 -5 -18z"/>
<path d="M3239 3547 c15 -19 1 -23 -17 -5 -7 7 -12 9 -12 5 0 -3 24 -21 53
-40 82 -52 81 -52 72 -37 -6 10 -3 12 11 7 18 -7 18 -6 -1 9 -33 26 -59 38
-50 24 5 -8 3 -11 -6 -8 -8 3 -14 10 -14 16 0 6 -11 19 -25 29 -23 16 -24 16
-11 0z m86 -57 c3 -5 2 -10 -4 -10 -5 0 -13 5 -16 10 -3 6 -2 10 4 10 5 0 13
-4 16 -10z"/>
<path d="M3681 3544 c0 -11 3 -14 6 -6 3 7 2 16 -1 19 -3 4 -6 -2 -5 -13z"/>
<path d="M3771 3543 c0 -12 -4 -30 -7 -40 -5 -17 -5 -17 6 0 6 10 9 28 7 40
-4 22 -4 22 -6 0z"/>
<path d="M4092 3540 c0 -14 2 -19 5 -12 2 6 2 18 0 25 -3 6 -5 1 -5 -13z"/>
<path d="M2580 3540 c0 -5 5 -10 11 -10 5 0 7 5 4 10 -3 6 -8 10 -11 10 -2 0
-4 -4 -4 -10z"/>
<path d="M5065 3540 c-3 -6 1 -7 9 -4 18 7 21 14 7 14 -6 0 -13 -4 -16 -10z"/>
<path d="M2396 3510 c8 -43 14 -51 14 -19 0 13 -5 31 -10 39 -7 11 -8 5 -4
-20z"/>
<path d="M4392 3515 c0 -16 2 -22 5 -12 2 9 2 23 0 30 -3 6 -5 -1 -5 -18z"/>
<path d="M2539 3506 c26 -27 41 -33 41 -15 0 5 -4 7 -10 4 -5 -3 -10 -2 -10 4
0 6 -10 16 -22 22 -23 11 -23 11 1 -15z"/>
<path d="M1853 3508 c-5 -7 -13 -20 -18 -28 -6 -12 -5 -12 5 -3 9 8 17 9 30 1
23 -15 52 -3 48 19 -4 22 -51 29 -65 11z m57 -13 c0 -16 -9 -19 -34 -9 -25 9
-19 24 9 24 16 0 25 -6 25 -15z"/>
<path d="M2323 3510 c-17 -7 -23 -17 -22 -37 l2 -28 4 28 c2 15 8 27 13 27 5
0 15 3 23 6 10 4 17 -2 20 -18 5 -23 5 -23 4 1 -2 28 -13 33 -44 21z"/>
<path d="M4992 3493 c-24 -24 -24 -25 -2 -8 42 33 44 35 37 35 -4 0 -19 -12
-35 -27z"/>
<path d="M2036 3435 c-37 -68 -47 -93 -22 -60 13 19 15 17 31 -23 10 -24 19
-41 21 -39 3 2 -3 20 -11 40 -19 46 -19 45 8 50 l22 4 -22 2 c-28 1 -28 2 -3
51 33 65 15 46 -24 -25z"/>
<path d="M4003 3493 c15 -2 39 -2 55 0 15 2 2 4 -28 4 -30 0 -43 -2 -27 -4z"/>
<path d="M2230 3479 c0 -5 5 -7 10 -4 6 3 10 8 10 11 0 2 -4 4 -10 4 -5 0 -10
-5 -10 -11z"/>
<path d="M2266 3476 c4 -11 -2 -19 -17 -25 -24 -10 -23 -10 4 -8 27 1 39 29
17 42 -6 3 -7 -1 -4 -9z"/>
<path d="M2660 3480 c-9 -6 -10 -10 -3 -10 6 0 15 5 18 10 8 12 4 12 -15 0z"/>
<path d="M1710 3460 c-6 -11 -8 -20 -6 -20 3 0 10 9 16 20 6 11 8 20 6 20 -3
0 -10 -9 -16 -20z"/>
<path d="M1936 3459 c-26 -20 -34 -43 -18 -53 5 -3 8 5 8 17 -1 16 9 27 34 39
19 10 28 18 19 18 -9 0 -28 -9 -43 -21z"/>
<path d="M2914 3458 l-19 -23 23 19 c21 18 27 26 19 26 -2 0 -12 -10 -23 -22z"/>
<path d="M3711 3464 c0 -11 3 -14 6 -6 3 7 2 16 -1 19 -3 4 -6 -2 -5 -13z"/>
<path d="M4210 3471 c0 -6 4 -13 10 -16 6 -3 7 1 4 9 -7 18 -14 21 -14 7z"/>
<path d="M1840 3451 c0 -9 30 -24 36 -18 2 1 -6 8 -16 15 -11 7 -20 8 -20 3z"/>
<path d="M2190 3446 c0 -8 4 -17 9 -20 5 -4 7 3 4 14 -6 23 -13 26 -13 6z"/>
<path d="M3395 3450 c6 -10 3 -12 -11 -7 -18 7 -18 6 1 -8 11 -9 25 -13 32
-11 7 3 13 1 13 -5 0 -6 5 -7 11 -3 16 9 -10 24 -29 16 -10 -3 -13 -1 -8 6 3
6 1 14 -5 18 -8 5 -9 3 -4 -6z"/>
<path d="M1976 3435 c-3 -9 -6 -29 -5 -43 1 -22 3 -19 10 12 10 40 6 60 -5 31z"/>
<path d="M4315 3438 c8 -20 -19 -26 -30 -8 -9 14 -22 12 -28 -4 -4 -10 -1 -13
8 -10 7 3 22 1 33 -5 16 -8 21 -7 26 6 4 9 2 21 -4 27 -8 8 -9 6 -5 -6z"/>
<path d="M2345 3414 c-22 -13 -35 -24 -30 -24 12 0 75 38 75 45 0 6 2 7 -45
-21z"/>
<path d="M3476 3425 c-11 -8 -17 -17 -14 -20 2 -3 13 4 23 15 21 23 18 25 -9
5z"/>
<path d="M3832 3420 c-18 -29 -15 -38 4 -12 9 13 14 25 12 27 -2 2 -9 -5 -16
-15z"/>
<path d="M4916 3423 c-6 -14 -5 -15 5 -6 7 7 10 15 7 18 -3 3 -9 -2 -12 -12z"/>
<path d="M4434 3416 c11 -9 24 -16 30 -16 12 0 7 5 -24 19 -24 11 -24 11 -6
-3z"/>
<path d="M1170 3389 l-35 -30 38 26 c33 24 43 35 34 35 -1 0 -18 -14 -37 -31z"/>
<path d="M4575 3410 c-13 -6 -15 -9 -5 -9 8 0 22 4 30 9 18 12 2 12 -25 0z"/>
<path d="M4488 3393 c6 -2 18 -2 25 0 6 3 1 5 -13 5 -14 0 -19 -2 -12 -5z"/>
<path d="M2268 3383 c6 -2 18 -2 25 0 6 3 1 5 -13 5 -14 0 -19 -2 -12 -5z"/>
<path d="M3980 3375 c-7 -9 -11 -17 -9 -20 3 -2 10 5 17 15 14 24 10 26 -8 5z"/>
<path d="M1647 3369 c7 -7 15 -10 18 -7 3 3 -2 9 -12 12 -14 6 -15 5 -6 -5z"/>
<path d="M2595 3370 c-3 -6 1 -7 9 -4 18 7 21 14 7 14 -6 0 -13 -4 -16 -10z"/>
<path d="M2668 3362 c9 -10 19 -17 21 -16 6 5 -20 34 -30 34 -5 0 -1 -8 9 -18z"/>
<path d="M3289 3293 c-74 -78 -166 -180 -113 -128 61 61 207 215 203 215 -2 0
-43 -39 -90 -87z"/>
<path d="M3318 3248 c-63 -68 -118 -129 -123 -137 -5 -8 25 21 66 64 41 44 98
106 128 137 30 32 52 58 49 58 -3 0 -57 -55 -120 -122z"/>
<path d="M1268 3353 c12 -2 30 -2 40 0 9 3 -1 5 -23 4 -22 0 -30 -2 -17 -4z"/>
<path d="M1393 3353 c9 -2 23 -2 30 0 6 3 -1 5 -18 5 -16 0 -22 -2 -12 -5z"/>
<path d="M4161 3355 c-1 -13 19 -35 31 -35 4 0 8 5 8 10 0 6 -6 10 -14 10 -8
0 -17 6 -19 13 -3 6 -6 7 -6 2z"/>
<path d="M1208 3343 c7 -3 16 -2 19 1 4 3 -2 6 -13 5 -11 0 -14 -3 -6 -6z"/>
<path d="M1460 3340 c8 -5 20 -10 25 -10 6 0 3 5 -5 10 -8 5 -19 10 -25 10 -5
0 -3 -5 5 -10z"/>
<path d="M1718 3343 c6 -2 18 -2 25 0 6 3 1 5 -13 5 -14 0 -19 -2 -12 -5z"/>
<path d="M2304 3334 c-19 -15 -19 -15 1 -6 11 5 27 12 35 15 13 5 13 6 -1 6
-8 1 -24 -6 -35 -15z"/>
<path d="M2388 3343 c7 -3 16 -2 19 1 4 3 -2 6 -13 5 -11 0 -14 -3 -6 -6z"/>
<path d="M1838 3333 c6 -2 18 -2 25 0 6 3 1 5 -13 5 -14 0 -19 -2 -12 -5z"/>
<path d="M2427 3325 c4 -11 7 -36 7 -55 -1 -31 0 -32 9 -12 8 17 6 31 -7 55
-9 18 -13 23 -9 12z"/>
<path d="M3774 3315 c-4 -9 -2 -30 4 -48 11 -31 11 -30 7 13 -4 33 -2 39 4 25
8 -16 10 -17 10 -3 1 23 -18 33 -25 13z"/>
<path d="M4009 3313 c-13 -16 -12 -17 4 -4 16 13 21 21 13 21 -2 0 -10 -8 -17
-17z"/>
<path d="M2676 3303 c-6 -14 -5 -15 5 -6 7 7 10 15 7 18 -3 3 -9 -2 -12 -12z"/>
<path d="M3605 3259 c3 -41 0 -70 -8 -78 -16 -16 -27 -13 -21 7 5 13 4 14 -4
3 -15 -22 -4 -45 15 -29 11 9 16 9 23 -2 6 -10 9 -5 12 15 4 37 25 44 31 10 4
-24 4 -24 3 2 -1 20 -6 28 -19 27 -15 -2 -17 5 -14 45 3 25 2 33 -1 16 -6 -30
-6 -30 -13 10 -6 30 -7 24 -4 -26z"/>
<path d="M1547 3299 c7 -7 15 -10 18 -7 3 3 -2 9 -12 12 -14 6 -15 5 -6 -5z"/>
<path d="M2266 3295 c-3 -9 -6 -24 -5 -33 0 -9 5 -4 10 12 9 32 6 48 -5 21z"/>
<path d="M2355 3301 c-3 -6 1 -13 8 -18 8 -4 17 -15 20 -23 4 -10 6 -7 6 8 1
15 -5 22 -16 22 -15 0 -16 2 -3 10 9 6 10 10 3 10 -6 0 -14 -4 -18 -9z"/>
<path d="M4662 3285 c0 -16 2 -22 5 -12 2 9 2 23 0 30 -3 6 -5 -1 -5 -18z"/>
<path d="M2752 3277 c-9 -10 -4 -17 21 -31 l32 -18 -24 20 c-13 11 -21 24 -17
31 10 15 1 14 -12 -2z"/>
<path d="M3873 3278 c-6 -7 -13 -26 -16 -43 -5 -27 -3 -30 21 -32 22 -1 23 1
9 8 -19 11 -23 54 -6 64 17 11 23 -3 8 -22 -12 -17 -12 -17 5 -1 10 9 15 21
12 27 -9 14 -21 14 -33 -1z"/>
<path d="M1098 3273 c7 -3 16 -2 19 1 4 3 -2 6 -13 5 -11 0 -14 -3 -6 -6z"/>
<path d="M1238 3273 c7 -3 16 -2 19 1 4 3 -2 6 -13 5 -11 0 -14 -3 -6 -6z"/>
<path d="M2321 3264 c0 -11 3 -14 6 -6 3 7 2 16 -1 19 -3 4 -6 -2 -5 -13z"/>
<path d="M1970 3250 c6 -11 13 -20 16 -20 2 0 0 9 -6 20 -6 11 -13 20 -16 20
-2 0 0 -9 6 -20z"/>
<path d="M2608 3263 c6 -2 18 -2 25 0 6 3 1 5 -13 5 -14 0 -19 -2 -12 -5z"/>
<path d="M4618 3253 c7 -3 16 -2 19 1 4 3 -2 6 -13 5 -11 0 -14 -3 -6 -6z"/>
<path d="M1200 3246 c0 -3 14 -12 30 -21 17 -9 30 -13 30 -11 0 3 -13 12 -30
21 -16 9 -30 13 -30 11z"/>
<path d="M3705 3239 c-4 -6 -5 -12 -2 -15 2 -3 7 2 10 11 7 17 1 20 -8 4z"/>
<path d="M1728 3233 c7 -3 16 -2 19 1 4 3 -2 6 -13 5 -11 0 -14 -3 -6 -6z"/>
<path d="M4257 3218 c-15 -12 -13 -17 18 -53 35 -40 42 -55 27 -55 -5 0 -17
-7 -28 -15 -17 -14 -15 -14 14 0 17 8 32 19 32 23 0 5 -16 27 -36 50 -38 45
-33 59 6 17 13 -14 26 -23 28 -20 3 3 15 -3 26 -12 11 -10 5 2 -15 26 -41 52
-49 56 -72 39z m48 -18 c27 -30 12 -34 -15 -5 -13 14 -19 25 -13 25 5 0 18 -9
28 -20z"/>
<path d="M1370 3216 c0 -2 7 -7 16 -10 8 -3 12 -2 9 4 -6 10 -25 14 -25 6z"/>
<path d="M2122 3200 c0 -14 2 -19 5 -12 2 6 2 18 0 25 -3 6 -5 1 -5 -13z"/>
<path d="M2365 3210 c-28 -7 -28 -8 -5 -9 14 0 32 4 40 9 17 11 8 11 -35 0z"/>
<path d="M3802 3190 c0 -19 2 -27 5 -17 2 9 2 25 0 35 -3 9 -5 1 -5 -18z"/>
<path d="M2308 3203 c7 -3 16 -2 19 1 4 3 -2 6 -13 5 -11 0 -14 -3 -6 -6z"/>
<path d="M3702 3190 c0 -14 2 -19 5 -12 2 6 2 18 0 25 -3 6 -5 1 -5 -13z"/>
<path d="M4204 3184 c-18 -14 -18 -15 4 -4 12 6 22 13 22 15 0 8 -5 6 -26 -11z"/>
<path d="M4376 3187 c3 -10 9 -15 12 -12 3 3 0 11 -7 18 -10 9 -11 8 -5 -6z"/>
<path d="M1831 3185 c1 -19 18 -51 18 -35 0 8 -4 22 -9 30 -5 8 -9 11 -9 5z"/>
<path d="M3836 3173 c-6 -14 -5 -15 5 -6 7 7 10 15 7 18 -3 3 -9 -2 -12 -12z"/>
<path d="M4600 3180 c-48 -7 -45 -13 5 -10 17 1 34 6 40 11 5 5 7 8 5 7 -3 0
-25 -4 -50 -8z"/>
<path d="M4907 3183 c-11 -11 -8 -58 5 -71 9 -9 16 -8 29 4 16 15 18 13 27
-28 5 -23 10 -35 11 -25 1 22 -28 127 -35 127 -3 0 -3 -9 1 -20 7 -23 -12 -63
-26 -54 -6 3 -9 22 -7 40 4 37 4 37 -5 27z"/>
<path d="M2645 3169 c-4 -6 -5 -12 -2 -15 2 -3 7 2 10 11 7 17 1 20 -8 4z"/>
<path d="M3460 3171 c0 -6 5 -13 10 -16 6 -3 10 1 10 9 0 9 -4 16 -10 16 -5 0
-10 -4 -10 -9z"/>
<path d="M3518 3158 c-2 -15 -9 -22 -22 -21 -11 1 -15 -2 -9 -8 16 -16 43 2
43 27 0 30 -8 31 -12 2z"/>
<path d="M2352 3149 c-24 -12 -41 -23 -39 -25 2 -2 21 5 42 16 52 27 115 26
150 -2 24 -19 26 -26 21 -62 -3 -28 -2 -35 4 -21 16 37 10 63 -21 89 -39 33
-97 34 -157 5z"/>
<path d="M4408 3147 c-3 -19 -2 -25 4 -19 6 6 8 18 6 28 -3 14 -5 12 -10 -9z"/>
<path d="M1750 3149 c0 -5 -4 -7 -10 -4 -5 3 -7 0 -4 -8 8 -21 32 -17 26 5 -5
20 -12 24 -12 7z"/>
<path d="M3418 3153 c7 -3 16 -2 19 1 4 3 -2 6 -13 5 -11 0 -14 -3 -6 -6z"/>
<path d="M3691 3147 c-1 -10 -8 -20 -16 -23 -19 -8 -9 -24 13 -23 11 0 13 2 4
6 -10 4 -10 8 -1 19 6 7 9 19 6 26 -3 8 -6 6 -6 -5z"/>
<path d="M3968 3153 c6 -2 18 -2 25 0 6 3 1 5 -13 5 -14 0 -19 -2 -12 -5z"/>
<path d="M4838 3150 c12 -5 22 -15 22 -21 0 -7 2 -10 5 -7 12 11 -9 38 -29 37
-21 0 -21 0 2 -9z"/>
<path d="M3888 3143 c6 -2 18 -2 25 0 6 3 1 5 -13 5 -14 0 -19 -2 -12 -5z"/>
<path d="M4214 3134 c-18 -14 -18 -14 6 -3 31 14 36 19 24 19 -6 0 -19 -7 -30
-16z"/>
<path d="M4330 3130 c6 -11 13 -20 16 -20 2 0 0 9 -6 20 -6 11 -13 20 -16 20
-2 0 0 -9 6 -20z"/>
<path d="M2630 3128 c0 -14 8 -18 38 -17 34 2 34 2 7 6 -16 3 -33 10 -37 16
-5 8 -8 6 -8 -5z"/>
<path d="M2690 3136 c0 -2 7 -7 16 -10 8 -3 12 -2 9 4 -6 10 -25 14 -25 6z"/>
<path d="M2981 3136 c10 -9 69 -36 69 -32 0 6 -55 36 -66 36 -4 0 -5 -2 -3 -4z"/>
<path d="M3818 3133 c6 -2 18 -2 25 0 6 3 1 5 -13 5 -14 0 -19 -2 -12 -5z"/>
<path d="M4115 3130 c-3 -6 1 -7 9 -4 18 7 21 14 7 14 -6 0 -13 -4 -16 -10z"/>
<path d="M4810 3109 c5 -18 12 -34 16 -38 4 -3 4 2 1 12 -4 10 -7 27 -7 38 0
10 -4 19 -9 19 -6 0 -6 -12 -1 -31z"/>
<path d="M1060 3115 c0 -8 2 -15 4 -15 2 0 6 7 10 15 3 8 1 15 -4 15 -6 0 -10
-7 -10 -15z"/>
<path d="M2479 3121 c8 -5 10 -14 6 -22 -6 -11 -5 -11 5 -2 14 12 6 33 -13 33
-8 0 -7 -3 2 -9z"/>
<path d="M3768 3123 c7 -3 16 -2 19 1 4 3 -2 6 -13 5 -11 0 -14 -3 -6 -6z"/>
<path d="M4369 3112 c7 -12 17 -20 22 -16 6 3 9 7 7 8 -2 1 -12 8 -22 16 -18
14 -19 14 -7 -8z"/>
<path d="M1161 3073 l-23 -47 -22 37 c-35 58 -42 58 -10 0 16 -29 29 -51 30
-50 1 1 14 22 28 47 25 44 25 44 35 20 11 -28 14 -17 5 18 -9 32 -17 28 -43
-25z"/>
<path d="M2155 3109 c-4 -6 -5 -12 -2 -15 2 -3 7 2 10 11 7 17 1 20 -8 4z"/>
<path d="M2454 3090 c1 -18 7 -26 24 -28 12 -2 22 1 22 6 0 6 -9 8 -19 5 -15
-4 -21 1 -24 19 -4 22 -4 22 -3 -2z"/>
<path d="M3718 3113 c7 -3 16 -2 19 1 4 3 -2 6 -13 5 -11 0 -14 -3 -6 -6z"/>
<path d="M4080 3110 c-9 -6 -10 -10 -3 -10 6 0 15 5 18 10 8 12 4 12 -15 0z"/>
<path d="M4771 3104 c0 -11 3 -14 6 -6 3 7 2 16 -1 19 -3 4 -6 -2 -5 -13z"/>
<path d="M2011 3094 c0 -11 3 -14 6 -6 3 7 2 16 -1 19 -3 4 -6 -2 -5 -13z"/>
<path d="M2281 3080 c-8 -25 -8 -38 4 -58 8 -15 14 -23 15 -19 0 5 -5 17 -10
27 -7 13 -7 28 0 46 6 15 9 29 6 31 -2 2 -9 -10 -15 -27z"/>
<path d="M2397 3103 c-10 -10 -8 -41 3 -48 6 -4 7 1 3 11 -4 11 1 22 12 30 15
11 16 14 4 14 -9 0 -19 -3 -22 -7z"/>
<path d="M2833 3100 c5 -18 35 -26 50 -11 7 7 3 8 -13 4 -13 -4 -26 0 -32 8
-8 12 -9 11 -5 -1z"/>
<path d="M4600 3101 c0 -6 -21 -12 -47 -13 l-48 -1 42 -4 c45 -4 84 9 64 21
-6 4 -11 2 -11 -3z"/>
<path d="M1310 3097 c-3 -3 -3 -33 -2 -66 3 -49 7 -61 20 -61 12 0 13 3 5 8
-6 4 -13 34 -15 66 -2 32 -5 56 -8 53z"/>
<path d="M3070 3090 c8 -5 20 -10 25 -10 6 0 3 5 -5 10 -8 5 -19 10 -25 10 -5
0 -3 -5 5 -10z"/>
<path d="M3638 3093 c7 -3 16 -2 19 1 4 3 -2 6 -13 5 -11 0 -14 -3 -6 -6z"/>
<path d="M4331 3089 c-1 -9 -11 -24 -23 -33 -22 -16 -21 -16 9 -1 17 8 35 20
39 26 4 7 3 9 -4 5 -5 -3 -13 0 -15 6 -4 9 -6 7 -6 -3z"/>
<path d="M1051 3074 c0 -11 3 -14 6 -6 3 7 2 16 -1 19 -3 4 -6 -2 -5 -13z"/>
<path d="M2328 3083 c6 -2 18 -2 25 0 6 3 1 5 -13 5 -14 0 -19 -2 -12 -5z"/>
<path d="M4685 3080 c-13 -6 -15 -9 -5 -9 8 0 22 4 30 9 18 12 2 12 -25 0z"/>
<path d="M5120 3070 c-6 -11 -21 -20 -33 -21 -12 0 -31 -4 -42 -9 -14 -7 -8
-8 20 -3 39 6 84 30 85 46 0 15 -20 6 -30 -13z"/>
<path d="M2150 3071 c0 -6 4 -13 10 -16 6 -3 7 1 4 9 -7 18 -14 21 -14 7z"/>
<path d="M3123 3073 c9 -2 23 -2 30 0 6 3 -1 5 -18 5 -16 0 -22 -2 -12 -5z"/>
<path d="M3278 3073 c6 -2 18 -2 25 0 6 3 1 5 -13 5 -14 0 -19 -2 -12 -5z"/>
<path d="M3348 3073 c7 -3 16 -2 19 1 4 3 -2 6 -13 5 -11 0 -14 -3 -6 -6z"/>
<path d="M3568 3073 c7 -3 16 -2 19 1 4 3 -2 6 -13 5 -11 0 -14 -3 -6 -6z"/>
<path d="M3773 3073 c9 -2 23 -2 30 0 6 3 -1 5 -18 5 -16 0 -22 -2 -12 -5z"/>
<path d="M4045 3056 c17 -26 45 -42 45 -26 0 6 -5 10 -11 10 -5 0 -7 5 -3 12
4 6 3 8 -3 5 -6 -4 -13 0 -17 8 -3 8 -10 15 -16 15 -6 0 -4 -11 5 -24z"/>
<path d="M4781 3064 c0 -11 3 -14 6 -6 3 7 2 16 -1 19 -3 4 -6 -2 -5 -13z"/>
<path d="M4914 3056 c-32 -50 5 -108 45 -72 12 11 21 26 21 35 0 10 -5 7 -13
-9 -16 -32 -51 -33 -55 -2 -2 13 4 34 12 48 9 13 14 24 11 24 -2 0 -12 -11
-21 -24z"/>
<path d="M2310 3056 c0 -8 4 -17 9 -20 5 -4 7 3 4 14 -6 23 -13 26 -13 6z"/>
<path d="M2353 3050 c-11 -16 -10 -18 2 -14 8 4 15 12 15 20 0 19 -3 18 -17
-6z"/>
<path d="M3718 3063 c7 -3 16 -2 19 1 4 3 -2 6 -13 5 -11 0 -14 -3 -6 -6z"/>
<path d="M940 3021 c0 -22 -5 -42 -12 -44 -8 -3 -6 -6 5 -6 14 -1 17 8 17 44
0 25 -2 45 -5 45 -3 0 -5 -18 -5 -39z"/>
<path d="M5146 3049 c6 -10 54 -17 59 -9 3 4 -11 10 -29 12 -19 2 -33 1 -30
-3z"/>
<path d="M2188 3039 c7 -9 10 -25 6 -35 -5 -18 -5 -18 6 0 10 15 9 21 -6 35
-16 14 -17 14 -6 0z"/>
<path d="M4530 3030 c6 -11 13 -20 16 -20 2 0 0 9 -6 20 -6 11 -13 20 -16 20
-2 0 0 -9 6 -20z"/>
<path d="M4154 3024 c-18 -14 -18 -15 4 -4 12 6 22 13 22 15 0 8 -5 6 -26 -11z"/>
<path d="M5154 3014 c-18 -14 -18 -15 4 -4 12 6 22 13 22 15 0 8 -5 6 -26 -11z"/>
<path d="M1025 3010 c3 -5 8 -10 11 -10 2 0 4 5 4 10 0 6 -5 10 -11 10 -5 0
-7 -4 -4 -10z"/>
<path d="M2455 3005 c-16 -8 -23 -14 -14 -15 8 0 24 7 35 15 23 18 18 18 -21
0z"/>
<path d="M3990 3000 c-13 -25 -5 -40 21 -40 19 0 19 1 4 16 -9 9 -14 23 -11
30 8 21 -2 17 -14 -6z"/>
<path d="M4205 3000 c-16 -11 -25 -20 -20 -20 10 0 64 39 55 40 -3 0 -18 -9
-35 -20z"/>
<path d="M1420 3006 c0 -9 30 -14 35 -6 4 6 -3 10 -14 10 -12 0 -21 -2 -21 -4z"/>
<path d="M4089 2999 c14 -5 28 -6 32 -2 4 4 -6 9 -24 10 -30 1 -31 1 -8 -8z"/>
<path d="M1388 2993 c7 -3 16 -2 19 1 4 3 -2 6 -13 5 -11 0 -14 -3 -6 -6z"/>
<path d="M2319 2987 c5 -5 19 -7 32 -5 20 3 19 5 -9 9 -20 3 -29 2 -23 -4z"/>
<path d="M5091 2989 c-13 -5 -21 -12 -18 -15 3 -3 18 1 34 10 31 17 21 20 -16
5z"/>
<path d="M2388 2983 c6 -2 18 -2 25 0 6 3 1 5 -13 5 -14 0 -19 -2 -12 -5z"/>
<path d="M3785 2980 c4 -6 11 -8 16 -5 14 9 11 15 -7 15 -8 0 -12 -5 -9 -10z"/>
<path d="M3852 2970 c0 -14 2 -19 5 -12 2 6 2 18 0 25 -3 6 -5 1 -5 -13z"/>
<path d="M4400 2982 c0 -5 10 -17 23 -28 l22 -19 -18 22 c-19 21 -18 22 10 26
27 4 27 4 -4 6 -18 0 -33 -3 -33 -7z"/>
<path d="M5136 2981 c-3 -5 1 -14 9 -21 10 -9 15 -9 15 -1 0 6 -5 11 -11 11
-5 0 -7 5 -4 10 3 6 4 10 1 10 -3 0 -7 -4 -10 -9z"/>
<path d="M852 2945 c17 -31 19 -38 7 -46 -9 -6 -10 -9 -2 -9 6 0 15 4 18 10 6
10 -19 65 -35 75 -5 3 0 -10 12 -30z"/>
<path d="M4106 2966 c3 -9 13 -16 22 -16 8 0 13 1 11 3 -2 1 -12 9 -22 16 -15
12 -17 12 -11 -3z"/>
<path d="M4493 2973 c9 -2 23 -2 30 0 6 3 -1 5 -18 5 -16 0 -22 -2 -12 -5z"/>
<path d="M1713 2935 c0 -22 2 -30 4 -17 2 12 2 30 0 40 -3 9 -5 -1 -4 -23z"/>
<path d="M3046 2846 c-3 -66 -6 -186 -6 -267 l0 -148 43 -5 c23 -3 90 -7 149
-9 101 -5 107 -4 112 16 3 12 4 23 2 24 -2 2 -49 6 -106 10 l-102 6 6 76 c3
42 8 153 12 246 l7 170 -55 0 -55 0 -7 -119z"/>
<path d="M1876 2930 c10 -51 24 -72 17 -25 -3 22 -10 44 -14 50 -6 5 -7 -5 -3
-25z"/>
<path d="M2693 2949 c-85 -25 -147 -146 -147 -289 0 -137 50 -225 144 -250
107 -29 190 58 190 198 l0 45 -52 -7 c-29 -3 -65 -6 -80 -6 -18 0 -28 -5 -28
-15 0 -11 11 -15 40 -15 39 0 40 -1 42 -37 3 -89 -6 -118 -41 -133 -57 -23
-91 18 -112 135 -19 109 5 269 47 316 18 20 69 26 79 9 3 -5 9 -28 13 -51 6
-37 11 -42 35 -43 42 -2 50 7 43 46 -13 71 -98 119 -173 97z"/>
<path d="M4063 2953 c9 -2 23 -2 30 0 6 3 -1 5 -18 5 -16 0 -22 -2 -12 -5z"/>
<path d="M1406 2934 c-9 -23 -8 -24 17 -23 16 1 17 3 5 6 -10 2 -15 10 -11 19
3 8 3 14 0 14 -3 0 -8 -7 -11 -16z"/>
<path d="M1818 2933 c7 -3 16 -2 19 1 4 3 -2 6 -13 5 -11 0 -14 -3 -6 -6z"/>
<path d="M1786 2915 c-3 -9 -5 -29 -5 -43 1 -20 3 -17 9 13 8 43 7 57 -4 30z"/>
<path d="M4455 2910 c10 -11 20 -20 23 -20 3 0 -3 9 -13 20 -10 11 -20 20 -23
20 -3 0 3 -9 13 -20z"/>
<path d="M4693 2923 c9 -2 23 -2 30 0 6 3 -1 5 -18 5 -16 0 -22 -2 -12 -5z"/>
<path d="M1841 2904 c0 -11 3 -14 6 -6 3 7 2 16 -1 19 -3 4 -6 -2 -5 -13z"/>
<path d="M3510 2833 c-7 -49 -25 -165 -39 -260 -27 -172 -27 -172 -6 -177 38
-11 64 -6 69 12 18 65 79 483 71 491 -6 5 -26 11 -46 15 l-36 6 -13 -87z"/>
<path d="M1275 2900 c-3 -6 1 -7 9 -4 18 7 21 14 7 14 -6 0 -13 -4 -16 -10z"/>
<path d="M1468 2903 c12 -2 20 -9 17 -14 -3 -5 1 -6 10 -2 13 5 14 7 3 14 -7
5 -22 8 -33 7 -17 -1 -17 -1 3 -5z"/>
<path d="M1718 2861 c9 -16 18 -28 20 -27 6 7 -18 56 -27 56 -6 0 -2 -13 7
-29z"/>
<path d="M4661 2874 c0 -11 3 -14 6 -6 3 7 2 16 -1 19 -3 4 -6 -2 -5 -13z"/>
<path d="M1261 2864 c0 -11 3 -14 6 -6 3 7 2 16 -1 19 -3 4 -6 -2 -5 -13z"/>
<path d="M2967 2874 c-4 -4 -7 -18 -7 -31 0 -20 5 -24 23 -21 16 2 22 10 22
28 0 24 -23 39 -38 24z"/>
<path d="M4489 2866 c10 -12 7 -15 -21 -19 -28 -3 -27 -4 11 -5 43 -2 44 -2
26 18 -21 23 -34 28 -16 6z"/>
<path d="M756 2861 c-6 -8 43 -35 51 -27 2 2 -5 7 -16 11 -12 3 -19 11 -16 16
4 5 2 9 -4 9 -5 0 -12 -4 -15 -9z"/>
<path d="M1040 2840 c-15 -35 -26 -38 -35 -9 -4 11 -9 19 -11 16 -2 -2 2 -18
9 -36 l13 -31 23 41 c13 22 21 42 18 45 -2 3 -10 -9 -17 -26z"/>
<path d="M1133 2825 c0 -27 2 -38 4 -22 2 15 2 37 0 50 -2 12 -4 0 -4 -28z"/>
<path d="M1663 2855 c-3 -9 -3 -18 -1 -21 3 -3 8 4 11 16 6 23 -1 27 -10 5z"/>
<path d="M1421 2847 c-8 -11 -5 -16 17 -26 24 -10 25 -10 8 3 -10 8 -15 19
-11 25 9 16 0 14 -14 -2z"/>
<path d="M2292 2852 c-25 -4 -27 14 24 -191 19 -73 34 -138 34 -143 0 -5 -35
19 -77 54 -241 198 -232 192 -257 180 l-23 -10 33 -99 c127 -369 125 -363 150
-363 32 0 31 11 -17 141 -22 61 -38 113 -35 116 2 3 61 -38 129 -91 120 -92
165 -113 182 -86 6 10 -102 481 -113 491 -4 3 -17 3 -30 1z"/>
<path d="M4260 2856 c0 -2 17 -14 38 -25 33 -19 35 -20 14 -2 l-23 20 43 4
c38 3 36 4 -14 5 -32 1 -58 0 -58 -2z"/>
<path d="M4782 2840 c0 -14 2 -19 5 -12 2 6 2 18 0 25 -3 6 -5 1 -5 -13z"/>
<path d="M3414 2835 c-8 -19 3 -35 25 -35 25 0 32 10 20 31 -12 23 -37 25 -45
4z"/>
<path d="M1707 2821 c-4 -17 -3 -21 5 -13 5 5 8 16 6 23 -3 8 -7 3 -11 -10z"/>
<path d="M3875 2824 c-114 -59 -126 -154 -31 -247 65 -64 76 -84 76 -140 0
-55 -23 -79 -76 -79 -51 0 -74 29 -74 91 0 46 0 46 -45 62 l-45 17 0 -49 c0
-63 28 -110 82 -136 90 -45 158 -39 216 17 72 68 60 176 -25 240 -73 55 -94
130 -48 175 28 29 70 32 104 9 21 -15 23 -22 17 -70 l-6 -54 36 -15 c20 -8 38
-15 39 -15 9 0 11 70 3 100 -12 44 -33 67 -80 91 -45 23 -103 24 -143 3z"/>
<path d="M833 2819 c18 -10 17 -14 -15 -47 l-33 -36 41 34 c36 31 39 37 26 48
-9 6 -21 12 -26 12 -6 0 -3 -5 7 -11z"/>
<path d="M2474 2816 c-9 -24 4 -48 23 -44 12 2 18 12 18 28 0 29 -32 41 -41
16z"/>
<path d="M4653 2780 c0 -25 2 -35 4 -22 2 12 2 32 0 45 -2 12 -4 2 -4 -23z"/>
<path d="M1484 2795 c11 -8 24 -15 29 -15 4 0 5 -4 2 -10 -3 -5 -1 -10 4 -10
22 0 10 20 -21 35 -29 14 -31 14 -14 0z"/>
<path d="M4771 2803 c-1 -6 -4 -20 -7 -30 -5 -17 -5 -17 6 0 6 10 9 23 6 30
-3 9 -5 9 -5 0z"/>
<path d="M4951 2791 c-12 -12 -21 -25 -21 -30 0 -5 -3 -17 -7 -27 -6 -16 -5
-17 9 -4 8 8 14 20 11 26 -6 16 24 44 47 44 10 0 21 -8 24 -17 4 -14 4 -14 3
2 -3 28 -41 31 -66 6z"/>
<path d="M4817 2786 c-4 -10 -1 -13 9 -9 15 6 19 23 5 23 -5 0 -11 -7 -14 -14z"/>
<path d="M3724 2775 c-8 -19 3 -35 26 -35 19 0 34 25 24 41 -8 14 -44 10 -50
-6z"/>
<path d="M4892 2750 c0 -19 2 -27 5 -17 2 9 2 25 0 35 -3 9 -5 1 -5 -18z"/>
<path d="M1013 2730 c0 -25 2 -35 4 -22 2 12 2 32 0 45 -2 12 -4 2 -4 -23z"/>
<path d="M5065 2750 c10 -11 20 -20 23 -20 3 0 -3 9 -13 20 -10 11 -20 20 -23
20 -3 0 3 -9 13 -20z"/>
<path d="M4802 2735 c0 -16 2 -22 5 -12 2 9 2 23 0 30 -3 6 -5 -1 -5 -18z"/>
<path d="M1122 2730 c0 -14 2 -19 5 -12 2 6 2 18 0 25 -3 6 -5 1 -5 -13z"/>
<path d="M1430 2740 c-24 -15 -7 -18 20 -3 14 7 18 13 10 13 -8 0 -22 -4 -30
-10z"/>
<path d="M770 2729 c0 -5 9 -9 20 -9 11 0 20 2 20 4 0 2 -9 6 -20 9 -11 3 -20
1 -20 -4z"/>
<path d="M1307 2726 c-3 -8 -16 -16 -29 -19 -21 -4 -21 -4 -2 -6 21 -1 52 24
42 35 -3 3 -8 -2 -11 -10z"/>
<path d="M2962 2718 c-22 -22 -7 -48 28 -48 14 0 21 32 9 46 -14 17 -22 17
-37 2z"/>
<path d="M847 2713 c9 -3 9 -11 -3 -31 l-16 -27 21 25 c25 31 26 40 4 39 -11
0 -13 -3 -6 -6z"/>
<path d="M4710 2710 c-9 -6 -10 -10 -3 -10 6 0 15 5 18 10 8 12 4 12 -15 0z"/>
<path d="M1430 2707 c0 -2 15 -16 33 -33 l32 -29 -29 33 c-28 30 -36 37 -36
29z"/>
<path d="M3402 2698 c-21 -21 -14 -48 12 -48 28 0 42 26 25 46 -14 17 -22 17
-37 2z"/>
<path d="M4640 2699 c0 -5 11 -9 25 -9 14 0 25 2 25 4 0 2 -11 6 -25 8 -14 3
-25 1 -25 -3z"/>
<path d="M4874 2699 c-3 -6 -19 -9 -35 -7 -15 3 -26 1 -23 -4 9 -13 51 -9 64
7 7 8 10 15 7 15 -3 0 -9 -5 -13 -11z"/>
<path d="M4990 2700 c-9 -6 -10 -10 -3 -10 6 0 15 5 18 10 8 12 4 12 -15 0z"/>
<path d="M5539 2689 l-24 -20 28 17 c15 9 27 18 27 20 0 8 -8 4 -31 -17z"/>
<path d="M1128 2693 c6 -2 18 -2 25 0 6 3 1 5 -13 5 -14 0 -19 -2 -12 -5z"/>
<path d="M2467 2673 c-4 -3 -7 -17 -7 -30 0 -20 5 -24 22 -21 26 3 37 36 16
49 -16 11 -23 11 -31 2z"/>
<path d="M4332 2644 c-6 -7 -12 -15 -12 -18 0 -3 -47 -96 -105 -207 -77 -149
-101 -205 -92 -211 45 -31 69 -39 83 -27 8 6 14 18 14 25 0 8 4 14 9 14 5 0
14 14 21 30 7 17 16 30 21 30 12 0 119 -60 119 -67 0 -3 -13 -28 -30 -55 -16
-26 -30 -52 -30 -57 0 -7 64 -51 74 -51 3 0 100 146 215 325 28 43 50 83 48
88 -1 5 -21 20 -44 34 l-42 24 -12 -23 c-11 -21 -137 -218 -145 -227 -5 -6
-75 27 -103 48 l-24 18 42 70 c22 38 41 72 41 76 0 3 14 29 30 57 17 28 30 53
30 55 0 2 -21 17 -48 33 -39 24 -50 27 -60 16z"/>
<path d="M5853 2653 c9 -2 25 -2 35 0 9 3 1 5 -18 5 -19 0 -27 -2 -17 -5z"/>
<path d="M816 2635 c-3 -9 0 -15 9 -15 9 0 12 6 9 15 -4 8 -7 15 -9 15 -2 0
-5 -7 -9 -15z"/>
<path d="M896 2642 c6 -4 14 -14 17 -22 4 -10 6 -8 6 8 1 15 -5 22 -16 22 -11
0 -14 -3 -7 -8z"/>
<path d="M1383 2600 c0 -30 2 -43 4 -27 2 15 2 39 0 55 -2 15 -4 2 -4 -28z"/>
<path d="M1660 2566 c-79 -46 -146 -88 -147 -93 -6 -16 201 -413 215 -413 4 0
21 8 37 18 17 10 75 42 130 72 55 29 104 56 109 61 6 5 5 19 -2 35 l-12 26
-95 -51 c-53 -28 -99 -51 -104 -51 -8 0 -71 124 -71 139 1 3 41 26 91 51 50
25 93 48 95 52 3 4 0 17 -6 28 -14 25 -22 23 -127 -33 l-80 -43 -32 59 c-17
33 -30 61 -29 62 2 2 46 26 98 55 52 29 96 54 98 56 2 1 -2 14 -10 27 l-13 25
-145 -82z"/>
<path d="M1950 2634 c-11 -12 -11 -18 2 -30 14 -14 17 -14 31 1 18 17 13 45
-8 45 -7 0 -18 -7 -25 -16z"/>
<path d="M3727 2643 c-11 -10 -8 -41 4 -49 6 -3 18 1 27 9 13 13 13 19 2 31
-14 17 -23 20 -33 9z"/>
<path d="M5788 2643 c7 -3 16 -2 19 1 4 3 -2 6 -13 5 -11 0 -14 -3 -6 -6z"/>
<path d="M1453 2633 c9 -2 25 -2 35 0 9 3 1 5 -18 5 -19 0 -27 -2 -17 -5z"/>
<path d="M5738 2633 c7 -3 16 -2 19 1 4 3 -2 6 -13 5 -11 0 -14 -3 -6 -6z"/>
<path d="M5665 2620 c-13 -5 -14 -9 -5 -9 8 0 24 4 35 9 13 5 14 9 5 9 -8 0
-24 -4 -35 -9z"/>
<path d="M1285 2600 c3 -5 8 -10 11 -10 2 0 4 5 4 10 0 6 -5 10 -11 10 -5 0
-7 -4 -4 -10z"/>
<path d="M901 2584 c0 -11 3 -14 6 -6 3 7 2 16 -1 19 -3 4 -6 -2 -5 -13z"/>
<path d="M1087 2580 c10 -11 19 -20 21 -20 1 0 -2 9 -8 20 -6 11 -15 20 -20
20 -6 0 -2 -9 7 -20z"/>
<path d="M1195 2580 c10 -11 20 -20 23 -20 3 0 -3 9 -13 20 -10 11 -20 20 -23
20 -3 0 3 -9 13 -20z"/>
<path d="M4206 2591 c-10 -16 6 -42 23 -39 9 2 17 13 19 26 3 16 -2 22 -17 22
-11 0 -22 -4 -25 -9z"/>
<path d="M508 2583 c6 -2 18 -2 25 0 6 3 1 5 -13 5 -14 0 -19 -2 -12 -5z"/>
<path d="M1310 2586 c0 -2 8 -10 18 -17 15 -13 16 -12 3 4 -13 16 -21 21 -21
13z"/>
<path d="M1001 2564 c0 -11 3 -14 6 -6 3 7 2 16 -1 19 -3 4 -6 -2 -5 -13z"/>
<path d="M2960 2565 c-15 -18 -6 -45 13 -45 8 0 20 7 27 15 10 12 10 18 0 30
-16 19 -24 19 -40 0z"/>
<path d="M4825 2570 c-3 -6 1 -7 9 -4 18 7 21 14 7 14 -6 0 -13 -4 -16 -10z"/>
<path d="M5327 2573 c12 -2 26 -17 33 -34 7 -16 15 -28 17 -25 2 2 -3 18 -12
35 -11 22 -22 31 -38 30 -22 -2 -22 -2 0 -6z"/>
<path d="M5243 2563 c9 -2 23 -2 30 0 6 3 -1 5 -18 5 -16 0 -22 -2 -12 -5z"/>
<path d="M1160 2554 c0 -5 -5 -16 -10 -24 -8 -13 -11 -12 -25 5 -16 20 -16 20
-5 -2 5 -12 14 -24 19 -27 9 -6 35 44 26 52 -3 3 -5 1 -5 -4z"/>
<path d="M3380 2545 c-18 -21 -5 -47 22 -43 26 3 37 36 16 49 -18 12 -24 11
-38 -6z"/>
<path d="M4795 2550 c-3 -5 -2 -18 4 -27 7 -14 9 -12 8 10 -2 30 -3 31 -12 17z"/>
<path d="M5180 2550 c-18 -12 -2 -12 25 0 13 6 15 9 5 9 -8 0 -22 -4 -30 -9z"/>
<path d="M1229 2535 c17 -33 31 -51 31 -40 0 6 -10 21 -21 35 -13 17 -17 18
-10 5z"/>
<path d="M1261 2534 c0 -11 3 -14 6 -6 3 7 2 16 -1 19 -3 4 -6 -2 -5 -13z"/>
<path d="M2501 2517 c-12 -12 -15 -40 -5 -50 11 -11 44 13 44 32 0 23 -23 34
-39 18z"/>
<path d="M1995 2499 c-7 -19 7 -38 26 -39 14 0 19 33 8 46 -16 20 -27 17 -34
-7z"/>
<path d="M3827 2513 c-11 -10 -8 -41 4 -49 16 -9 41 20 33 39 -6 17 -25 22
-37 10z"/>
<path d="M5723 2503 c9 -2 23 -2 30 0 6 3 -1 5 -18 5 -16 0 -22 -2 -12 -5z"/>
<path d="M4870 2490 c-9 -6 -10 -10 -3 -10 6 0 15 5 18 10 8 12 4 12 -15 0z"/>
<path d="M5628 2493 c6 -2 18 -2 25 0 6 3 1 5 -13 5 -14 0 -19 -2 -12 -5z"/>
<path d="M418 2483 c29 -2 74 -2 100 0 26 2 2 3 -53 3 -55 0 -76 -1 -47 -3z"/>
<path d="M4145 2469 c-5 -14 -2 -25 6 -30 21 -13 34 -5 34 22 0 31 -31 38 -40
8z"/>
<path d="M5548 2473 c7 -3 16 -2 19 1 4 3 -2 6 -13 5 -11 0 -14 -3 -6 -6z"/>
<path d="M5053 2456 c-4 -8 -17 -16 -28 -19 -18 -4 -18 -5 2 -6 13 -1 27 7 33
19 12 22 6 28 -7 6z"/>
<path d="M773 2395 c0 -22 2 -30 4 -17 2 12 2 30 0 40 -3 9 -5 -1 -4 -23z"/>
<path d="M4968 2423 c7 -3 16 -2 19 1 4 3 -2 6 -13 5 -11 0 -14 -3 -6 -6z"/>
<path d="M4910 2410 c-8 -5 -10 -10 -5 -10 6 0 17 5 25 10 8 5 11 10 5 10 -5
0 -17 -5 -25 -10z"/>
<path d="M891 2393 c-1 -6 -4 -20 -7 -30 -5 -17 -5 -17 6 0 6 10 9 23 6 30 -3
9 -5 9 -5 0z"/>
<path d="M5061 2395 c0 -5 6 -21 14 -35 8 -14 14 -20 14 -15 0 6 -6 21 -14 35
-8 14 -14 21 -14 15z"/>
<path d="M1132 2365 c13 -12 29 -22 37 -22 11 0 11 2 -1 11 -8 6 -17 15 -19
21 -2 5 -12 10 -22 10 -16 2 -15 -1 5 -20z"/>
<path d="M4839 2369 l-24 -20 28 17 c15 9 27 18 27 20 0 8 -8 4 -31 -17z"/>
<path d="M543 2373 c26 -2 68 -2 95 0 26 2 4 3 -48 3 -52 0 -74 -1 -47 -3z"/>
<path d="M1066 2364 c-9 -8 -15 -25 -15 -37 2 -22 2 -22 6 1 2 12 10 22 18 22
7 0 15 7 19 15 7 20 -8 19 -28 -1z"/>
<path d="M2050 2365 c-10 -11 -10 -19 -2 -27 15 -15 44 -2 40 19 -4 23 -22 27
-38 8z"/>
<path d="M5440 2375 c0 -5 5 -17 10 -25 5 -8 10 -10 10 -5 0 6 -5 17 -10 25
-5 8 -10 11 -10 5z"/>
<path d="M428 2363 c6 -2 18 -2 25 0 6 3 1 5 -13 5 -14 0 -19 -2 -12 -5z"/>
<path d="M1476 2361 c-10 -16 5 -41 25 -41 14 0 19 7 19 25 0 18 -5 25 -19 25
-11 0 -22 -4 -25 -9z"/>
<path d="M4084 2345 c-4 -9 -2 -21 4 -27 15 -15 44 -1 40 19 -4 23 -36 29 -44
8z"/>
<path d="M780 2342 c0 -5 11 -19 25 -32 l26 -24 27 29 27 29 -28 -24 -29 -25
-24 28 c-13 15 -24 24 -24 19z"/>
<path d="M4779 2323 l-24 -28 28 24 c25 23 32 31 24 31 -2 0 -14 -12 -28 -27z"/>
<path d="M3043 2333 c9 -2 23 -2 30 0 6 3 -1 5 -18 5 -16 0 -22 -2 -12 -5z"/>
<path d="M3100 2331 c0 -6 4 -11 10 -11 5 0 11 -26 13 -57 l4 -58 -1 64 c-1
42 -5 66 -13 69 -7 2 -13 -1 -13 -7z"/>
<path d="M1160 2317 c0 -6 -11 -33 -25 -59 -14 -26 -25 -53 -25 -60 1 -7 7 1
15 17 7 17 14 24 14 16 1 -21 12 -6 16 21 1 12 6 35 10 51 4 15 4 27 1 27 -3
0 -6 -6 -6 -13z"/>
<path d="M2980 2320 c-9 -6 -10 -10 -3 -10 6 0 15 5 18 10 8 12 4 12 -15 0z"/>
<path d="M3255 2310 c-3 -6 1 -7 9 -4 18 7 21 14 7 14 -6 0 -13 -4 -16 -10z"/>
<path d="M5100 2305 c0 -5 5 -17 10 -25 5 -8 10 -10 10 -5 0 6 -5 17 -10 25
-5 8 -10 11 -10 5z"/>
<path d="M5470 2305 c0 -5 5 -17 10 -25 5 -8 10 -10 10 -5 0 6 -5 17 -10 25
-5 8 -10 11 -10 5z"/>
<path d="M3033 2293 c9 -2 25 -2 35 0 9 3 1 5 -18 5 -19 0 -27 -2 -17 -5z"/>
<path d="M2933 2283 c9 -2 25 -2 35 0 9 3 1 5 -18 5 -19 0 -27 -2 -17 -5z"/>
<path d="M3318 2273 c6 -2 18 -2 25 0 6 3 1 5 -13 5 -14 0 -19 -2 -12 -5z"/>
<path d="M4730 2276 c0 -11 30 -66 36 -66 2 0 -3 15 -12 33 -19 36 -24 44 -24
33z"/>
<path d="M2721 2254 c0 -11 3 -14 6 -6 3 7 2 16 -1 19 -3 4 -6 -2 -5 -13z"/>
<path d="M3266 2261 c-4 -5 3 -7 14 -4 23 6 26 13 6 13 -8 0 -17 -4 -20 -9z"/>
<path d="M3368 2263 c7 -3 16 -2 19 1 4 3 -2 6 -13 5 -11 0 -14 -3 -6 -6z"/>
<path d="M1532 2238 c2 -15 10 -23 23 -23 13 0 21 8 23 23 3 18 -1 22 -23 22
-22 0 -26 -4 -23 -22z"/>
<path d="M2983 2215 c0 -27 2 -38 4 -23 2 15 12 29 21 31 16 4 16 5 0 6 -9 0
-19 9 -21 19 -3 9 -5 -5 -4 -33z"/>
<path d="M3418 2253 c12 -2 30 -2 40 0 9 3 -1 5 -23 4 -22 0 -30 -2 -17 -4z"/>
<path d="M5495 2251 c4 -8 2 -17 -6 -22 -10 -6 -11 -9 -1 -9 6 0 12 -10 12
-22 0 -13 4 -29 9 -37 5 -8 7 5 4 35 -3 27 -10 54 -16 59 -7 7 -7 6 -2 -4z"/>
<path d="M2923 2210 c0 -25 2 -35 4 -22 2 12 2 32 0 45 -2 12 -4 2 -4 -23z"/>
<path d="M3072 2220 c0 -19 2 -27 5 -17 2 9 2 25 0 35 -3 9 -5 1 -5 -18z"/>
<path d="M3908 2233 c6 -2 18 -2 25 0 6 3 1 5 -13 5 -14 0 -19 -2 -12 -5z"/>
<path d="M3951 2224 c0 -11 3 -14 6 -6 3 7 2 16 -1 19 -3 4 -6 -2 -5 -13z"/>
<path d="M5130 2235 c0 -5 5 -17 10 -25 5 -8 10 -10 10 -5 0 6 -5 17 -10 25
-5 8 -10 11 -10 5z"/>
<path d="M1360 2226 c0 -3 14 -12 30 -21 17 -9 30 -13 30 -11 0 3 -13 12 -30
21 -16 9 -30 13 -30 11z"/>
<path d="M2210 2220 c11 -7 3 -10 -30 -11 l-45 -2 40 -6 c22 -4 49 -3 60 3 19
9 19 9 0 17 -28 11 -43 10 -25 -1z"/>
<path d="M2529 2192 c5 -34 6 -35 9 -8 2 16 0 32 -5 37 -5 5 -7 -7 -4 -29z"/>
<path d="M2727 2211 c-3 -12 -1 -19 3 -16 5 3 11 -3 13 -12 4 -15 5 -15 6 2 0
11 -3 26 -8 33 -6 10 -10 9 -14 -7z"/>
<path d="M3823 2223 c9 -2 25 -2 35 0 9 3 1 5 -18 5 -19 0 -27 -2 -17 -5z"/>
<path d="M3733 2213 c9 -2 25 -2 35 0 9 3 1 5 -18 5 -19 0 -27 -2 -17 -5z"/>
<path d="M5438 2213 c7 -3 16 -2 19 1 4 3 -2 6 -13 5 -11 0 -14 -3 -6 -6z"/>
<path d="M907 2203 c-11 -11 -8 -20 7 -20 8 0 12 6 9 14 -6 15 -7 15 -16 6z"/>
<path d="M3012 2194 c-7 -8 -8 -14 -3 -14 10 0 25 19 20 25 -2 1 -10 -3 -17
-11z"/>
<path d="M3658 2203 c6 -2 18 -2 25 0 6 3 1 5 -13 5 -14 0 -19 -2 -12 -5z"/>
<path d="M972 2180 c0 -14 2 -19 5 -12 2 6 2 18 0 25 -3 6 -5 1 -5 -13z"/>
<path d="M2108 2193 c7 -3 16 -2 19 1 4 3 -2 6 -13 5 -11 0 -14 -3 -6 -6z"/>
<path d="M2654 2185 c-7 -17 3 -35 19 -34 9 0 9 2 0 6 -19 7 -16 31 5 36 16 4
16 5 -1 6 -10 0 -20 -6 -23 -14z"/>
<path d="M3583 2193 c9 -2 23 -2 30 0 6 3 -1 5 -18 5 -16 0 -22 -2 -12 -5z"/>
<path d="M3961 2184 c0 -11 3 -14 6 -6 3 7 2 16 -1 19 -3 4 -6 -2 -5 -13z"/>
<path d="M3503 2183 c9 -2 25 -2 35 0 9 3 1 5 -18 5 -19 0 -27 -2 -17 -5z"/>
<path d="M5428 2183 c7 -3 16 -2 19 1 4 3 -2 6 -13 5 -11 0 -14 -3 -6 -6z"/>
<path d="M816 2164 c-9 -23 -7 -31 3 -15 7 11 14 9 36 -15 l27 -29 -27 38
c-31 42 -31 42 -39 21z"/>
<path d="M2028 2164 c-38 -20 -36 -28 2 -9 17 9 30 18 30 20 0 7 -1 6 -32 -11z"/>
<path d="M3438 2173 c6 -2 18 -2 25 0 6 3 1 5 -13 5 -14 0 -19 -2 -12 -5z"/>
<path d="M4797 2145 c9 -19 18 -33 21 -31 4 5 -26 66 -33 66 -3 0 3 -16 12
-35z"/>
<path d="M5298 2164 c-31 -16 -37 -27 -10 -17 15 6 16 5 2 -13 -14 -18 -14
-18 3 -5 9 8 15 16 12 19 -3 3 5 12 17 19 13 7 19 12 13 12 -5 0 -22 -7 -37
-15z"/>
<path d="M936 2157 c3 -10 9 -15 12 -12 3 3 0 11 -7 18 -10 9 -11 8 -5 -6z"/>
<path d="M2575 2160 c-3 -5 3 -10 15 -10 12 0 18 5 15 10 -3 6 -10 10 -15 10
-5 0 -12 -4 -15 -10z"/>
<path d="M3368 2163 c6 -2 18 -2 25 0 6 3 1 5 -13 5 -14 0 -19 -2 -12 -5z"/>
<path d="M3703 2130 c0 -25 2 -35 4 -22 2 12 2 32 0 45 -2 12 -4 2 -4 -23z"/>
<path d="M1130 2150 c0 -5 5 -10 10 -10 6 0 10 5 10 10 0 6 -4 10 -10 10 -5 0
-10 -4 -10 -10z"/>
<path d="M2699 2151 c9 -6 11 -16 7 -27 -6 -15 -4 -16 5 -7 14 14 5 43 -13 43
-10 0 -9 -3 1 -9z"/>
<path d="M2764 2148 c10 -6 22 -6 26 -2 5 5 -3 10 -18 11 -22 1 -24 0 -8 -9z"/>
<path d="M3303 2153 c9 -2 23 -2 30 0 6 3 -1 5 -18 5 -16 0 -22 -2 -12 -5z"/>
<path d="M4671 2153 c-1 -6 -4 -20 -7 -30 -5 -15 -4 -15 5 -3 9 13 11 12 12
-5 0 -11 3 -15 5 -9 3 6 0 22 -5 35 -5 13 -10 19 -10 12z"/>
<path d="M5375 2150 c-13 -6 -15 -9 -5 -9 8 0 22 4 30 9 18 12 2 12 -25 0z"/>
<path d="M1617 2143 c-13 -12 -7 -44 9 -50 21 -8 35 16 23 39 -10 19 -21 23
-32 11z"/>
<path d="M2978 2143 c12 -2 32 -2 45 0 12 2 2 4 -23 4 -25 0 -35 -2 -22 -4z"/>
<path d="M3248 2143 c7 -3 16 -2 19 1 4 3 -2 6 -13 5 -11 0 -14 -3 -6 -6z"/>
<path d="M3972 2130 c0 -14 2 -19 5 -12 2 6 2 18 0 25 -3 6 -5 1 -5 -13z"/>
<path d="M736 2123 c-6 -14 -5 -15 5 -6 7 7 10 15 7 18 -3 3 -9 -2 -12 -12z"/>
<path d="M955 2130 c-3 -5 -1 -10 4 -10 6 0 11 5 11 10 0 6 -2 10 -4 10 -3 0
-8 -4 -11 -10z"/>
<path d="M1291 2123 c-1 -24 35 -41 51 -25 8 8 4 9 -10 5 -16 -4 -24 1 -31 18
-9 23 -10 23 -10 2z"/>
<path d="M1362 2120 c0 -14 2 -19 5 -12 2 6 2 18 0 25 -3 6 -5 1 -5 -13z"/>
<path d="M2561 2119 c0 -15 7 -33 17 -40 15 -12 16 -12 5 1 -6 8 -13 26 -16
40 l-4 25 -2 -26z"/>
<path d="M2600 2130 c-12 -8 -12 -10 -1 -10 7 0 11 -6 8 -12 -3 -8 5 -14 20
-14 20 -2 21 0 10 10 -8 6 -16 16 -18 23 -3 8 -9 9 -19 3z"/>
<path d="M3197 2133 c-4 -3 -7 -11 -7 -17 0 -6 5 -5 12 2 6 6 9 14 7 17 -3 3
-9 2 -12 -2z"/>
<path d="M5170 2135 c0 -5 5 -17 10 -25 5 -8 10 -10 10 -5 0 6 -5 17 -10 25
-5 8 -10 11 -10 5z"/>
<path d="M5428 2133 c7 -3 16 -2 19 1 4 3 -2 6 -13 5 -11 0 -14 -3 -6 -6z"/>
<path d="M801 2114 c0 -11 3 -14 6 -6 3 7 2 16 -1 19 -3 4 -6 -2 -5 -13z"/>
<path d="M4122 2105 c0 -16 2 -22 5 -12 2 9 2 23 0 30 -3 6 -5 -1 -5 -18z"/>
<path d="M5370 2120 c-18 -12 -2 -12 25 0 13 6 15 9 5 9 -8 0 -22 -4 -30 -9z"/>
<path d="M776 2088 c10 -14 21 -24 23 -22 3 3 -6 15 -18 27 l-24 22 19 -27z"/>
<path d="M4700 2100 c0 -5 4 -10 9 -10 6 0 13 5 16 10 3 6 -1 10 -9 10 -9 0
-16 -4 -16 -10z"/>
<path d="M5325 2100 c-3 -6 1 -7 9 -4 18 7 21 14 7 14 -6 0 -13 -4 -16 -10z"/>
<path d="M4826 2087 c3 -10 9 -15 12 -12 3 3 0 11 -7 18 -10 9 -11 8 -5 -6z"/>
<path d="M721 2074 c0 -11 3 -14 6 -6 3 7 2 16 -1 19 -3 4 -6 -2 -5 -13z"/>
<path d="M1329 2070 c-13 -10 -19 -19 -13 -20 6 0 19 9 29 20 23 26 14 26 -16
0z"/>
<path d="M3854 2070 c1 -9 12 -16 26 -17 21 -1 21 -1 3 3 -12 3 -24 11 -26 17
-2 7 -3 5 -3 -3z"/>
<path d="M5194 2078 c4 -14 -1 -18 -22 -19 l-27 -1 30 -8 30 -8 -30 -2 c-26
-1 -27 -3 -10 -10 17 -7 16 -9 -10 -10 -22 -2 -24 -4 -10 -7 34 -8 42 -24 9
-17 -22 4 -33 2 -36 -8 -4 -10 4 -12 36 -10 22 2 46 9 51 14 7 8 6 9 -3 3 -10
-5 -13 -1 -10 16 3 27 40 38 62 20 10 -9 15 -7 19 9 4 16 2 19 -7 11 -14 -12
-41 2 -32 17 3 6 -2 9 -11 8 -10 -2 -22 2 -26 8 -6 7 -7 4 -3 -6z"/>
<path d="M2104 2058 l-19 -23 22 18 c12 11 27 16 34 11 8 -4 10 -3 5 4 -10 17
-21 15 -42 -10z"/>
<path d="M2351 2053 c0 -25 1 -26 9 -8 12 27 12 35 0 35 -5 0 -10 -12 -9 -27z"/>
<path d="M3638 2073 c7 -3 16 -2 19 1 4 3 -2 6 -13 5 -11 0 -14 -3 -6 -6z"/>
<path d="M3713 2035 c0 -27 2 -38 4 -22 2 15 2 37 0 50 -2 12 -4 0 -4 -28z"/>
<path d="M3738 2073 c6 -2 18 -2 25 0 6 3 1 5 -13 5 -14 0 -19 -2 -12 -5z"/>
<path d="M3982 2055 c0 -16 2 -22 5 -12 2 9 2 23 0 30 -3 6 -5 -1 -5 -18z"/>
<path d="M4648 2068 c9 -11 10 -18 2 -23 -5 -3 -10 -12 -10 -18 0 -7 7 -3 15
7 12 16 17 17 30 6 13 -11 15 -9 14 11 0 13 -3 18 -6 11 -4 -10 -11 -9 -31 4
-22 15 -25 15 -14 2z"/>
<path d="M980 2066 c0 -2 8 -10 18 -17 15 -13 16 -12 3 4 -13 16 -21 21 -21
13z"/>
<path d="M3583 2000 c0 -43 2 -56 4 -31 3 24 11 55 20 70 13 23 13 24 0 8 -15
-18 -16 -18 -20 5 -2 13 -4 -11 -4 -52z"/>
<path d="M2388 2053 c6 -2 18 -2 25 0 6 3 1 5 -13 5 -14 0 -19 -2 -12 -5z"/>
<path d="M3181 2044 c0 -11 3 -14 6 -6 3 7 2 16 -1 19 -3 4 -6 -2 -5 -13z"/>
<path d="M3221 2044 c0 -11 3 -14 6 -6 3 7 2 16 -1 19 -3 4 -6 -2 -5 -13z"/>
<path d="M4840 2055 c0 -5 5 -17 10 -25 5 -8 10 -10 10 -5 0 6 -5 17 -10 25
-5 8 -10 11 -10 5z"/>
<path d="M1874 2028 l-19 -23 23 19 c21 18 27 26 19 26 -2 0 -12 -10 -23 -22z"/>
<path d="M3926 2027 c3 -10 9 -15 12 -12 3 3 0 11 -7 18 -10 9 -11 8 -5 -6z"/>
<path d="M5070 2030 c-8 -5 -10 -10 -5 -10 6 0 17 5 25 10 8 5 11 10 5 10 -5
0 -17 -5 -25 -10z"/>
<path d="M1016 2017 c3 -10 9 -15 12 -12 3 3 0 11 -7 18 -10 9 -11 8 -5 -6z"/>
<path d="M1461 2020 c9 -5 20 -22 23 -36 4 -15 9 -24 12 -22 10 11 -19 68 -34
68 -16 -1 -16 -1 -1 -10z"/>
<path d="M3381 2014 c0 -11 3 -14 6 -6 3 7 2 16 -1 19 -3 4 -6 -2 -5 -13z"/>
<path d="M3496 2015 c-11 -8 -15 -15 -9 -15 6 0 16 7 23 15 16 19 11 19 -14 0z"/>
<path d="M4122 2010 c0 -14 2 -19 5 -12 2 6 2 18 0 25 -3 6 -5 1 -5 -13z"/>
<path d="M823 1985 c0 -22 2 -30 4 -17 2 12 2 30 0 40 -3 9 -5 -1 -4 -23z"/>
<path d="M2425 2010 c3 -5 11 -10 16 -10 6 0 7 5 4 10 -3 6 -11 10 -16 10 -6
0 -7 -4 -4 -10z"/>
<path d="M5230 2010 c-9 -6 -10 -10 -3 -10 6 0 15 5 18 10 8 12 4 12 -15 0z"/>
<path d="M5497 1999 c4 -13 8 -18 11 -10 2 7 -1 18 -6 23 -8 8 -9 4 -5 -13z"/>
<path d="M3191 1994 c0 -11 3 -14 6 -6 3 7 2 16 -1 19 -3 4 -6 -2 -5 -13z"/>
<path d="M3231 1994 c0 -11 3 -14 6 -6 3 7 2 16 -1 19 -3 4 -6 -2 -5 -13z"/>
<path d="M3786 1995 c-9 -26 -7 -32 5 -12 6 10 9 21 6 23 -2 3 -7 -2 -11 -11z"/>
<path d="M4527 2003 c-4 -3 -7 -11 -7 -17 0 -6 5 -5 12 2 6 6 9 14 7 17 -3 3
-9 2 -12 -2z"/>
<path d="M1360 1990 c-8 -5 -10 -10 -5 -10 6 0 17 5 25 10 8 5 11 10 5 10 -5
0 -17 -5 -25 -10z"/>
<path d="M2300 1990 c0 -5 5 -10 10 -10 6 0 10 5 10 10 0 6 -4 10 -10 10 -5 0
-10 -4 -10 -10z"/>
<path d="M2412 1975 c0 -16 2 -22 5 -12 2 9 2 23 0 30 -3 6 -5 -1 -5 -18z"/>
<path d="M3431 1962 c1 -28 3 -31 6 -12 3 14 9 28 15 31 5 4 3 9 -6 12 -13 5
-16 -1 -15 -31z"/>
<path d="M4982 1978 c-17 -13 -30 -28 -28 -34 5 -13 -13 -34 -27 -34 -5 0 -3
8 4 18 13 15 12 16 -3 4 -9 -8 -21 -11 -26 -8 -5 3 -9 -1 -9 -9 0 -24 41 -17
67 10 13 14 19 25 14 25 -5 1 5 12 21 25 38 31 30 32 -13 3z"/>
<path d="M1790 1980 c-8 -5 -10 -10 -5 -10 6 0 17 5 25 10 8 5 11 10 5 10 -5
0 -17 -5 -25 -10z"/>
<path d="M2771 1974 c0 -11 3 -14 6 -6 3 7 2 16 -1 19 -3 4 -6 -2 -5 -13z"/>
<path d="M2983 1965 c15 -13 28 -28 30 -32 1 -4 8 -8 15 -10 10 -1 8 5 -4 20
-26 31 -46 47 -58 47 -6 0 1 -12 17 -25z"/>
<path d="M3310 1985 c0 -5 5 -17 10 -25 5 -8 10 -10 10 -5 0 6 -5 17 -10 25
-5 8 -10 11 -10 5z"/>
<path d="M3371 1974 c0 -11 3 -14 6 -6 3 7 2 16 -1 19 -3 4 -6 -2 -5 -13z"/>
<path d="M2348 1955 c4 -21 6 -23 16 -11 6 7 18 17 26 20 8 3 5 4 -7 2 -13 -2
-23 0 -23 5 0 5 -4 9 -9 9 -4 0 -6 -11 -3 -25z"/>
<path d="M3873 1973 c9 -2 23 -2 30 0 6 3 -1 5 -18 5 -16 0 -22 -2 -12 -5z"/>
<path d="M1451 1964 c-1 -15 30 -106 35 -101 2 2 -5 28 -15 58 -11 30 -20 49
-20 43z"/>
<path d="M2219 1953 c6 -10 22 -31 36 -48 20 -23 19 -18 -6 18 -32 46 -49 63
-30 30z"/>
<path d="M3242 1950 c0 -14 2 -19 5 -12 2 6 2 18 0 25 -3 6 -5 1 -5 -13z"/>
<path d="M3740 1960 c-23 -7 -23 -8 -3 -9 12 -1 25 4 28 9 3 6 5 10 3 9 -2 -1
-14 -5 -28 -9z"/>
<path d="M3991 1963 c-1 -7 -11 -13 -23 -14 -22 0 -22 -1 -3 -9 23 -9 40 2 32
22 -4 9 -6 10 -6 1z"/>
<path d="M1618 1953 c12 -2 32 -2 45 0 12 2 2 4 -23 4 -25 0 -35 -2 -22 -4z"/>
<path d="M1698 1953 c6 -2 18 -2 25 0 6 3 1 5 -13 5 -14 0 -19 -2 -12 -5z"/>
<path d="M2811 1944 c0 -11 3 -14 6 -6 3 7 2 16 -1 19 -3 4 -6 -2 -5 -13z"/>
<path d="M3201 1944 c0 -11 3 -14 6 -6 3 7 2 16 -1 19 -3 4 -6 -2 -5 -13z"/>
<path d="M5019 1943 c-13 -16 -12 -17 4 -4 9 7 17 15 17 17 0 8 -8 3 -21 -13z"/>
<path d="M1042 1925 c0 -16 2 -22 5 -12 2 9 2 23 0 30 -3 6 -5 -1 -5 -18z"/>
<path d="M1340 1935 c-14 -8 -20 -14 -15 -14 6 0 21 6 35 14 14 8 21 14 15 14
-5 0 -21 -6 -35 -14z"/>
<path d="M2763 1915 c0 -22 2 -30 4 -17 2 12 2 30 0 40 -3 9 -5 -1 -4 -23z"/>
<path d="M3356 1924 c-4 -14 -5 -28 -3 -31 3 -2 8 8 11 23 4 14 5 28 3 31 -3
2 -8 -8 -11 -23z"/>
<path d="M830 1934 c0 -6 7 -19 16 -30 14 -18 14 -18 3 6 -14 31 -19 36 -19
24z"/>
<path d="M1210 1930 c-8 -5 -10 -10 -5 -10 6 0 17 5 25 10 8 5 11 10 5 10 -5
0 -17 -5 -25 -10z"/>
<path d="M3898 1933 c6 -2 18 -2 25 0 6 3 1 5 -13 5 -14 0 -19 -2 -12 -5z"/>
<path d="M2144 1908 l-19 -23 23 19 c21 18 27 26 19 26 -2 0 -12 -10 -23 -22z"/>
<path d="M2933 1890 c0 -25 2 -35 4 -22 2 12 2 32 0 45 -2 12 -4 2 -4 -23z"/>
<path d="M3833 1923 c9 -2 23 -2 30 0 6 3 -1 5 -18 5 -16 0 -22 -2 -12 -5z"/>
<path d="M5009 1903 l-24 -28 28 24 c25 23 32 31 24 31 -2 0 -14 -12 -28 -27z"/>
<path d="M5332 1910 c0 -14 2 -19 5 -12 2 6 2 18 0 25 -3 6 -5 1 -5 -13z"/>
<path d="M1160 1910 c-8 -5 -10 -10 -5 -10 6 0 17 5 25 10 8 5 11 10 5 10 -5
0 -17 -5 -25 -10z"/>
<path d="M2970 1888 c0 -31 3 -35 20 -31 20 5 19 11 -10 53 -7 11 -10 6 -10
-22z"/>
<path d="M3763 1913 c9 -2 25 -2 35 0 9 3 1 5 -18 5 -19 0 -27 -2 -17 -5z"/>
<path d="M3938 1913 c7 -3 16 -2 19 1 4 3 -2 6 -13 5 -11 0 -14 -3 -6 -6z"/>
<path d="M4550 1910 c-9 -6 -10 -10 -3 -10 6 0 15 5 18 10 8 12 4 12 -15 0z"/>
<path d="M4580 1905 c0 -8 2 -15 4 -15 2 0 6 7 10 15 3 8 1 15 -4 15 -6 0 -10
-7 -10 -15z"/>
<path d="M2198 1903 c7 -3 16 -2 19 1 4 3 -2 6 -13 5 -11 0 -14 -3 -6 -6z"/>
<path d="M3211 1894 c0 -11 3 -14 6 -6 3 7 2 16 -1 19 -3 4 -6 -2 -5 -13z"/>
<path d="M3252 1890 c0 -14 2 -19 5 -12 2 6 2 18 0 25 -3 6 -5 1 -5 -13z"/>
<path d="M3698 1903 c6 -2 18 -2 25 0 6 3 1 5 -13 5 -14 0 -19 -2 -12 -5z"/>
<path d="M3878 1903 c6 -2 18 -2 25 0 6 3 1 5 -13 5 -14 0 -19 -2 -12 -5z"/>
<path d="M1115 1889 c-11 -16 -1 -19 13 -3 7 8 8 14 3 14 -5 0 -13 -5 -16 -11z"/>
<path d="M1705 1890 c-13 -5 -14 -9 -5 -9 8 0 24 4 35 9 13 5 14 9 5 9 -8 0
-24 -4 -35 -9z"/>
<path d="M2803 1860 c0 -25 2 -35 4 -22 2 12 2 32 0 45 -2 12 -4 2 -4 -23z"/>
<path d="M3030 1893 c0 -15 36 -44 45 -36 4 5 5 0 2 -9 -3 -10 -2 -20 4 -24 6
-3 8 -13 4 -21 -5 -14 -3 -14 12 -2 15 12 16 12 10 -3 -6 -17 3 -24 16 -12 5
5 -61 114 -69 114 -2 0 -1 -8 2 -17 5 -15 3 -15 -10 1 -9 11 -16 15 -16 9z"/>
<path d="M3628 1893 c6 -2 18 -2 25 0 6 3 1 5 -13 5 -14 0 -19 -2 -12 -5z"/>
<path d="M3828 1893 c6 -2 18 -2 25 0 6 3 1 5 -13 5 -14 0 -19 -2 -12 -5z"/>
<path d="M2483 1883 c32 -2 81 -2 110 0 29 2 3 3 -58 3 -60 0 -84 -1 -52 -3z"/>
<path d="M3563 1883 c9 -2 23 -2 30 0 6 3 -1 5 -18 5 -16 0 -22 -2 -12 -5z"/>
<path d="M3768 1883 c6 -2 18 -2 25 0 6 3 1 5 -13 5 -14 0 -19 -2 -12 -5z"/>
<path d="M4946 1875 c7 -18 20 -19 30 -3 4 7 3 8 -4 4 -7 -4 -12 -2 -12 3 0 6
-4 11 -10 11 -5 0 -7 -7 -4 -15z"/>
<path d="M1180 1865 c-14 -8 -20 -14 -14 -15 5 0 19 7 30 15 24 18 16 19 -16
0z"/>
<path d="M1628 1873 c6 -2 18 -2 25 0 6 3 1 5 -13 5 -14 0 -19 -2 -12 -5z"/>
<path d="M3503 1873 c9 -2 23 -2 30 0 6 3 -1 5 -18 5 -16 0 -22 -2 -12 -5z"/>
<path d="M3708 1873 c6 -2 18 -2 25 0 6 3 1 5 -13 5 -14 0 -19 -2 -12 -5z"/>
<path d="M5271 1862 c-8 -14 -5 -18 12 -19 16 -2 18 0 8 6 -7 5 -10 14 -7 20
4 6 5 11 2 11 -3 0 -10 -8 -15 -18z"/>
<path d="M1408 1863 c6 -2 18 -2 25 0 6 3 1 5 -13 5 -14 0 -19 -2 -12 -5z"/>
<path d="M2280 1866 c0 -2 8 -10 18 -17 15 -13 16 -12 3 4 -13 16 -21 21 -21
13z"/>
<path d="M2831 1854 c0 -11 3 -14 6 -6 3 7 2 16 -1 19 -3 4 -6 -2 -5 -13z"/>
<path d="M3222 1850 c0 -14 2 -19 5 -12 2 6 2 18 0 25 -3 6 -5 1 -5 -13z"/>
<path d="M3433 1863 c9 -2 23 -2 30 0 6 3 -1 5 -18 5 -16 0 -22 -2 -12 -5z"/>
<path d="M3648 1863 c6 -2 18 -2 25 0 6 3 1 5 -13 5 -14 0 -19 -2 -12 -5z"/>
<path d="M4380 1866 c0 -2 8 -10 18 -17 15 -13 16 -12 3 4 -13 16 -21 21 -21
13z"/>
<path d="M2030 1856 c0 -2 8 -10 18 -17 15 -13 16 -12 3 4 -13 16 -21 21 -21
13z"/>
<path d="M3363 1853 c9 -2 23 -2 30 0 6 3 -1 5 -18 5 -16 0 -22 -2 -12 -5z"/>
<path d="M3588 1853 c6 -2 18 -2 25 0 6 3 1 5 -13 5 -14 0 -19 -2 -12 -5z"/>
<path d="M4628 1853 c6 -2 18 -2 25 0 6 3 1 5 -13 5 -14 0 -19 -2 -12 -5z"/>
<path d="M5322 1835 c0 -16 2 -22 5 -12 2 9 2 23 0 30 -3 6 -5 -1 -5 -18z"/>
<path d="M1346 1835 c-16 -12 -17 -15 -4 -15 9 0 18 7 22 15 7 18 6 18 -18 0z"/>
<path d="M1491 1840 c0 -8 4 -22 9 -30 12 -18 12 -2 0 25 -6 13 -9 15 -9 5z"/>
<path d="M2674 1745 c0 -60 1 -84 3 -52 2 32 2 81 0 110 -2 29 -3 3 -3 -58z"/>
<path d="M3248 1828 c-24 -24 -23 -28 10 -27 17 1 21 3 9 6 -14 4 -16 8 -6 19
18 22 7 23 -13 2z"/>
<path d="M3293 1843 c9 -2 23 -2 30 0 6 3 -1 5 -18 5 -16 0 -22 -2 -12 -5z"/>
<path d="M3528 1843 c6 -2 18 -2 25 0 6 3 1 5 -13 5 -14 0 -19 -2 -12 -5z"/>
<path d="M3463 1833 c9 -2 23 -2 30 0 6 3 -1 5 -18 5 -16 0 -22 -2 -12 -5z"/>
<path d="M1270 1810 c-6 -11 -8 -20 -6 -20 3 0 10 9 16 20 6 11 8 20 6 20 -3
0 -10 -9 -16 -20z"/>
<path d="M2991 1821 c-9 -6 -12 -21 -9 -45 2 -20 2 -36 -2 -36 -15 1 -29 18
-33 45 -4 23 -4 21 -3 -9 1 -30 5 -40 20 -42 31 -4 46 7 45 35 0 23 -1 24 -9
6 -8 -19 -9 -19 -9 3 -1 12 4 22 10 22 5 0 7 5 4 10 -8 13 1 13 28 -2 20 -10
21 -10 8 5 -15 19 -29 21 -50 8z"/>
<path d="M3388 1823 c6 -2 18 -2 25 0 6 3 1 5 -13 5 -14 0 -19 -2 -12 -5z"/>
<path d="M4330 1810 c-6 -11 -8 -20 -6 -20 3 0 10 9 16 20 6 11 8 20 6 20 -3
0 -10 -9 -16 -20z"/>
<path d="M5370 1820 c0 -4 11 -10 25 -12 14 -3 25 -2 25 2 0 4 -11 10 -25 12
-14 3 -25 2 -25 -2z"/>
<path d="M1472 1790 c0 -19 2 -27 5 -17 2 9 2 25 0 35 -3 9 -5 1 -5 -18z"/>
<path d="M3323 1813 c9 -2 23 -2 30 0 6 3 -1 5 -18 5 -16 0 -22 -2 -12 -5z"/>
<path d="M3692 1808 c-7 -7 -12 -17 -12 -22 0 -6 5 -3 11 7 9 15 13 16 25 6
12 -10 17 -9 27 1 9 10 9 11 -1 6 -7 -4 -19 -3 -26 3 -9 7 -16 7 -24 -1z"/>
<path d="M2592 1780 c0 -19 2 -27 5 -17 2 9 2 25 0 35 -3 9 -5 1 -5 -18z"/>
<path d="M3768 1803 c7 -3 16 -2 19 1 4 3 -2 6 -13 5 -11 0 -14 -3 -6 -6z"/>
<path d="M1738 1793 c7 -3 16 -2 19 1 4 3 -2 6 -13 5 -11 0 -14 -3 -6 -6z"/>
<path d="M1891 1784 c0 -11 3 -14 6 -6 3 7 2 16 -1 19 -3 4 -6 -2 -5 -13z"/>
<path d="M3530 1783 c0 -9 3 -13 7 -10 3 4 13 1 22 -5 10 -8 9 -4 -3 10 -23
26 -26 27 -26 5z"/>
<path d="M4803 1793 c15 -2 37 -2 50 0 12 2 0 4 -28 4 -27 0 -38 -2 -22 -4z"/>
<path d="M2219 1773 c-13 -16 -12 -17 4 -4 9 7 17 15 17 17 0 8 -8 3 -21 -13z"/>
<path d="M3060 1780 c8 -5 20 -10 25 -10 6 0 3 5 -5 10 -8 5 -19 10 -25 10 -5
0 -3 -5 5 -10z"/>
<path d="M4748 1783 c7 -3 16 -2 19 1 4 3 -2 6 -13 5 -11 0 -14 -3 -6 -6z"/>
<path d="M3657 1769 c7 -7 15 -10 18 -7 3 3 -2 9 -12 12 -14 6 -15 5 -6 -5z"/>
<path d="M4709 1763 c-13 -16 -12 -17 4 -4 9 7 17 15 17 17 0 8 -8 3 -21 -13z"/>
<path d="M4921 1776 c2 -2 18 -6 34 -10 22 -5 26 -4 15 4 -14 9 -59 15 -49 6z"/>
<path d="M5311 1764 c0 -11 3 -14 6 -6 3 7 2 16 -1 19 -3 4 -6 -2 -5 -13z"/>
<path d="M875 1760 c3 -5 8 -10 11 -10 2 0 4 5 4 10 0 6 -5 10 -11 10 -5 0 -7
-4 -4 -10z"/>
<path d="M2108 1754 c11 -22 41 -50 45 -43 1 2 -11 18 -27 34 -20 20 -25 23
-18 9z"/>
<path d="M2422 1750 c0 -14 2 -19 5 -12 2 6 2 18 0 25 -3 6 -5 1 -5 -13z"/>
<path d="M3217 1718 c-46 -74 -49 -78 -44 -78 3 0 20 24 38 53 18 28 39 58 48
65 9 7 10 12 3 12 -6 0 -26 -24 -45 -52z"/>
<path d="M828 1753 c7 -3 16 -2 19 1 4 3 -2 6 -13 5 -11 0 -14 -3 -6 -6z"/>
<path d="M1251 1744 c0 -11 3 -14 6 -6 3 7 2 16 -1 19 -3 4 -6 -2 -5 -13z"/>
<path d="M1526 1735 c8 -37 14 -45 14 -19 0 10 -5 26 -10 34 -8 11 -9 7 -4
-15z"/>
<path d="M3285 1753 c6 -5 30 -24 55 -42 l45 -33 -35 32 c-31 27 -91 68 -65
43z"/>
<path d="M3452 1740 c0 -14 2 -19 5 -12 2 6 2 18 0 25 -3 6 -5 1 -5 -13z"/>
<path d="M5461 1744 c0 -11 3 -14 6 -6 3 7 2 16 -1 19 -3 4 -6 -2 -5 -13z"/>
<path d="M1160 1745 c0 -5 5 -17 10 -25 5 -8 10 -10 10 -5 0 6 -5 17 -10 25
-5 8 -10 11 -10 5z"/>
<path d="M892 1720 c0 -14 2 -19 5 -12 2 6 2 18 0 25 -3 6 -5 1 -5 -13z"/>
<path d="M2580 1730 c-8 -5 -10 -10 -5 -10 6 0 17 5 25 10 8 5 11 10 5 10 -5
0 -17 -5 -25 -10z"/>
<path d="M4670 1719 c-6 -11 -10 -25 -8 -30 2 -5 8 4 15 21 13 34 9 40 -7 9z"/>
<path d="M5031 1737 c2 -2 20 -14 39 -26 l35 -23 -30 26 c-16 14 -34 26 -39
26 -5 0 -7 -1 -5 -3z"/>
<path d="M2517 1711 c-4 -17 -3 -21 5 -13 5 5 8 16 6 23 -3 8 -7 3 -11 -10z"/>
<path d="M3517 1719 c7 -7 15 -10 18 -7 3 3 -2 9 -12 12 -14 6 -15 5 -6 -5z"/>
<path d="M762 1700 c0 -14 2 -19 5 -12 2 6 2 18 0 25 -3 6 -5 1 -5 -13z"/>
<path d="M1010 1709 c0 -5 5 -7 10 -4 6 3 10 8 10 11 0 2 -4 4 -10 4 -5 0 -10
-5 -10 -11z"/>
<path d="M1261 1704 c0 -11 3 -14 6 -6 3 7 2 16 -1 19 -3 4 -6 -2 -5 -13z"/>
<path d="M2271 1703 l-25 -20 23 -8 c28 -8 34 -3 29 25 l-3 22 -24 -19z m19
-13 c0 -5 -4 -10 -10 -10 -5 0 -10 5 -10 10 0 6 5 10 10 10 6 0 10 -4 10 -10z"/>
<path d="M2461 1704 c0 -11 3 -14 6 -6 3 7 2 16 -1 19 -3 4 -6 -2 -5 -13z"/>
<path d="M1581 1694 c0 -11 3 -14 6 -6 3 7 2 16 -1 19 -3 4 -6 -2 -5 -13z"/>
<path d="M3460 1701 c0 -6 4 -13 10 -16 6 -3 7 1 4 9 -7 18 -14 21 -14 7z"/>
<path d="M1373 1693 c9 -2 25 -2 35 0 9 3 1 5 -18 5 -19 0 -27 -2 -17 -5z"/>
<path d="M1060 1680 c0 -5 5 -10 10 -10 6 0 10 5 10 10 0 6 -4 10 -10 10 -5 0
-10 -4 -10 -10z"/>
<path d="M1470 1680 c-8 -5 -10 -10 -5 -10 6 0 17 5 25 10 8 5 11 10 5 10 -5
0 -17 -5 -25 -10z"/>
<path d="M2531 1674 c0 -11 3 -14 6 -6 3 7 2 16 -1 19 -3 4 -6 -2 -5 -13z"/>
<path d="M5150 1648 c24 -27 45 -48 47 -48 8 0 0 9 -44 50 l-48 45 45 -47z"/>
<path d="M5498 1683 c6 -2 18 -2 25 0 6 3 1 5 -13 5 -14 0 -19 -2 -12 -5z"/>
<path d="M828 1673 c7 -3 16 -2 19 1 4 3 -2 6 -13 5 -11 0 -14 -3 -6 -6z"/>
<path d="M768 1663 c6 -2 18 -2 25 0 6 3 1 5 -13 5 -14 0 -19 -2 -12 -5z"/>
<path d="M1958 1663 c6 -2 18 -2 25 0 6 3 1 5 -13 5 -14 0 -19 -2 -12 -5z"/>
<path d="M2008 1663 c7 -3 16 -2 19 1 4 3 -2 6 -13 5 -11 0 -14 -3 -6 -6z"/>
<path d="M3252 1645 c0 -16 2 -22 5 -12 2 9 2 23 0 30 -3 6 -5 -1 -5 -18z"/>
<path d="M1230 1655 c0 -5 5 -17 10 -25 5 -8 10 -10 10 -5 0 6 -5 17 -10 25
-5 8 -10 11 -10 5z"/>
<path d="M2047 1649 c7 -7 15 -10 18 -7 3 3 -2 9 -12 12 -14 6 -15 5 -6 -5z"/>
<path d="M1390 1640 c-8 -5 -10 -10 -5 -10 6 0 17 5 25 10 8 5 11 10 5 10 -5
0 -17 -5 -25 -10z"/>
<path d="M2828 1643 c7 -3 16 -2 19 1 4 3 -2 6 -13 5 -11 0 -14 -3 -6 -6z"/>
<path d="M3345 1624 c-9 -15 -12 -23 -6 -20 11 7 35 46 28 46 -3 0 -12 -12
-22 -26z"/>
<path d="M1598 1617 c-3 -19 -2 -25 4 -19 6 6 8 18 6 28 -3 14 -5 12 -10 -9z"/>
<path d="M2488 1623 c34 -2 90 -2 125 0 34 2 6 3 -63 3 -69 0 -97 -1 -62 -3z"/>
<path d="M2806 1613 c-6 -14 -5 -15 5 -6 7 7 10 15 7 18 -3 3 -9 -2 -12 -12z"/>
<path d="M3040 1614 c8 -10 15 -20 16 -22 1 -2 4 1 7 5 3 5 -4 15 -16 23 -21
12 -21 12 -7 -6z"/>
<path d="M3200 1585 c0 -6 90 -58 95 -54 2 2 -19 16 -46 32 -27 15 -49 25 -49
22z"/>
<path d="M3310 1570 c-6 -11 -8 -20 -6 -20 3 0 10 9 16 20 6 11 8 20 6 20 -3
0 -10 -9 -16 -20z"/>
<path d="M2990 1570 c8 -5 20 -10 25 -10 6 0 3 5 -5 10 -8 5 -19 10 -25 10 -5
0 -3 -5 5 -10z"/>
<path d="M854 1539 c-19 -22 -19 -22 4 -10 12 6 22 16 22 21 0 15 -5 12 -26
-11z"/>
<path d="M5210 1529 c0 -17 -5 -40 -11 -52 -10 -21 -10 -21 5 -3 15 18 23 86
11 86 -3 0 -5 -14 -5 -31z"/>
<path d="M1230 1541 c0 -6 4 -13 10 -16 6 -3 7 1 4 9 -7 18 -14 21 -14 7z"/>
<path d="M1470 1540 c-8 -5 -10 -10 -5 -10 6 0 17 5 25 10 8 5 11 10 5 10 -5
0 -17 -5 -25 -10z"/>
<path d="M780 1531 c0 -5 7 -12 16 -15 14 -5 15 -4 4 9 -14 17 -20 19 -20 6z"/>
<path d="M4741 1524 c0 -11 3 -14 6 -6 3 7 2 16 -1 19 -3 4 -6 -2 -5 -13z"/>
<path d="M4780 1536 c0 -2 7 -7 16 -10 8 -3 12 -2 9 4 -6 10 -25 14 -25 6z"/>
<path d="M1375 1501 c-22 -11 -37 -20 -34 -20 10 -1 79 29 79 34 0 7 0 7 -45
-14z"/>
<path d="M2945 1510 c-3 -6 1 -7 9 -4 18 7 21 14 7 14 -6 0 -13 -4 -16 -10z"/>
<path d="M4820 1516 c0 -3 14 -12 30 -21 17 -9 30 -13 30 -11 0 3 -13 12 -30
21 -16 9 -30 13 -30 11z"/>
<path d="M5428 1513 c23 -2 59 -2 80 0 20 2 1 4 -43 4 -44 0 -61 -2 -37 -4z"/>
<path d="M3080 1489 c-7 -11 -10 -23 -7 -25 2 -2 9 7 15 21 14 30 7 33 -8 4z"/>
<path d="M5578 1503 c7 -3 16 -2 19 1 4 3 -2 6 -13 5 -11 0 -14 -3 -6 -6z"/>
<path d="M791 1484 c0 -11 3 -14 6 -6 3 7 2 16 -1 19 -3 4 -6 -2 -5 -13z"/>
<path d="M2871 1480 c-13 -11 -19 -20 -14 -20 6 0 18 9 28 20 23 25 17 25 -14
0z"/>
<path d="M5628 1493 c7 -3 16 -2 19 1 4 3 -2 6 -13 5 -11 0 -14 -3 -6 -6z"/>
<path d="M3147 1425 c-4 -25 4 -40 17 -28 9 9 7 41 -3 47 -5 3 -11 -6 -14 -19z"/>
<path d="M843 1433 c9 -2 23 -2 30 0 6 3 -1 5 -18 5 -16 0 -22 -2 -12 -5z"/>
<path d="M1078 1433 c6 -2 18 -2 25 0 6 3 1 5 -13 5 -14 0 -19 -2 -12 -5z"/>
<path d="M1500 1430 c-18 -12 -2 -12 25 0 13 6 15 9 5 9 -8 0 -22 -4 -30 -9z"/>
<path d="M1588 1433 c6 -2 18 -2 25 0 6 3 1 5 -13 5 -14 0 -19 -2 -12 -5z"/>
<path d="M4978 1433 c7 -3 16 -2 19 1 4 3 -2 6 -13 5 -11 0 -14 -3 -6 -6z"/>
<path d="M5130 1430 c-8 -5 -10 -10 -5 -10 6 0 17 5 25 10 8 5 11 10 5 10 -5
0 -17 -5 -25 -10z"/>
<path d="M1638 1423 c7 -3 16 -2 19 1 4 3 -2 6 -13 5 -11 0 -14 -3 -6 -6z"/>
<path d="M2820 1425 c0 -7 61 -37 66 -33 2 3 -12 12 -31 21 -19 9 -35 15 -35
12z"/>
<path d="M4403 1423 c9 -2 15 -9 12 -14 -4 -5 -2 -9 3 -9 6 0 12 7 16 15 4 11
-2 15 -22 14 -17 -1 -20 -3 -9 -6z"/>
<path d="M5018 1423 c7 -3 16 -2 19 1 4 3 -2 6 -13 5 -11 0 -14 -3 -6 -6z"/>
<path d="M5468 1423 c6 -2 18 -2 25 0 6 3 1 5 -13 5 -14 0 -19 -2 -12 -5z"/>
<path d="M817 1413 c-4 -3 -7 -11 -7 -17 0 -6 5 -5 12 2 6 6 9 14 7 17 -3 3
-9 2 -12 -2z"/>
<path d="M5538 1413 c7 -3 16 -2 19 1 4 3 -2 6 -13 5 -11 0 -14 -3 -6 -6z"/>
<path d="M3030 1390 c-6 -11 -8 -20 -6 -20 3 0 10 9 16 20 6 11 8 20 6 20 -3
0 -10 -9 -16 -20z"/>
<path d="M4754 1380 c22 -6 47 -16 55 -22 15 -11 15 -10 0 5 -8 10 -33 20 -55
22 l-39 5 39 -10z"/>
<path d="M5670 1376 c0 -3 14 -12 30 -21 17 -9 30 -13 30 -11 0 3 -13 12 -30
21 -16 9 -30 13 -30 11z"/>
<path d="M4713 1335 c0 -22 2 -30 4 -17 2 12 2 30 0 40 -3 9 -5 -1 -4 -23z"/>
<path d="M1296 1345 c4 -11 10 -45 14 -75 l7 -55 1 50 c1 29 -5 60 -14 75 -10
16 -13 18 -8 5z"/>
<path d="M5428 1353 c7 -3 16 -2 19 1 4 3 -2 6 -13 5 -11 0 -14 -3 -6 -6z"/>
<path d="M4830 1343 c0 -6 8 -17 18 -24 16 -13 16 -13 2 6 -8 11 -16 22 -17
24 -2 2 -3 0 -3 -6z"/>
<path d="M608 1333 c6 -2 18 -2 25 0 6 3 1 5 -13 5 -14 0 -19 -2 -12 -5z"/>
<path d="M558 1323 c7 -3 16 -2 19 1 4 3 -2 6 -13 5 -11 0 -14 -3 -6 -6z"/>
<path d="M5531 1326 c2 -2 15 -9 29 -15 24 -11 24 -11 6 3 -16 13 -49 24 -35
12z"/>
<path d="M947 1301 c-4 -17 -3 -21 5 -13 5 5 8 16 6 23 -3 8 -7 3 -11 -10z"/>
<path d="M1131 1300 c14 -31 19 -36 19 -24 0 6 -7 19 -16 30 -14 18 -14 18 -3
-6z"/>
<path d="M1202 1295 c0 -16 2 -22 5 -12 2 9 2 23 0 30 -3 6 -5 -1 -5 -18z"/>
<path d="M5180 1266 c-6 -20 -16 -36 -20 -36 -5 0 -7 -7 -3 -16 4 -12 12 -3
25 31 10 26 17 50 14 52 -2 2 -9 -12 -16 -31z"/>
<path d="M4230 1280 c-9 -6 -10 -10 -3 -10 6 0 15 5 18 10 8 12 4 12 -15 0z"/>
<path d="M3056 1255 c-9 -26 -7 -32 5 -12 6 10 9 21 6 23 -2 3 -7 -2 -11 -11z"/>
<path d="M4872 1245 c0 -16 2 -22 5 -12 2 9 2 23 0 30 -3 6 -5 -1 -5 -18z"/>
<path d="M590 1240 c-8 -5 -10 -10 -5 -10 6 0 17 5 25 10 8 5 11 10 5 10 -5 0
-17 -5 -25 -10z"/>
<path d="M976 1217 c3 -10 9 -15 12 -12 3 3 0 11 -7 18 -10 9 -11 8 -5 -6z"/>
<path d="M1163 1175 c0 -27 2 -38 4 -22 2 15 2 37 0 50 -2 12 -4 0 -4 -28z"/>
<path d="M3041 1204 c0 -11 3 -14 6 -6 3 7 2 16 -1 19 -3 4 -6 -2 -5 -13z"/>
<path d="M678 1175 c-27 -20 -48 -37 -48 -40 0 -3 23 11 50 31 43 31 58 45 48
44 -2 0 -24 -16 -50 -35z"/>
<path d="M1000 1170 c6 -11 13 -20 16 -20 2 0 0 9 -6 20 -6 11 -13 20 -16 20
-2 0 0 -9 6 -20z"/>
<path d="M1258 1183 c7 -3 16 -2 19 1 4 3 -2 6 -13 5 -11 0 -14 -3 -6 -6z"/>
<path d="M445 1154 l-30 -26 33 22 c17 12 32 23 32 26 0 7 -4 5 -35 -22z"/>
<path d="M4711 1128 c-1 -33 1 -36 22 -30 17 5 18 7 5 10 -9 2 -19 15 -21 30
-3 22 -4 20 -6 -10z"/>
<path d="M5128 1139 c-9 -10 -14 -20 -11 -23 7 -7 36 22 31 32 -2 4 -10 0 -20
-9z"/>
<path d="M1415 1140 c-19 -8 -19 -9 3 -9 12 -1 22 4 22 9 0 6 -1 10 -2 9 -2 0
-12 -4 -23 -9z"/>
<path d="M594 1108 l-19 -23 23 19 c21 18 27 26 19 26 -2 0 -12 -10 -23 -22z"/>
<path d="M4775 1120 c-16 -7 -17 -9 -3 -9 9 -1 20 4 23 9 7 11 7 11 -20 0z"/>
<path d="M1132 1082 l-23 -37 26 28 c14 15 25 32 25 38 0 14 -3 11 -28 -29z"/>
<path d="M5068 1113 c7 -3 16 -2 19 1 4 3 -2 6 -13 5 -11 0 -14 -3 -6 -6z"/>
<path d="M1040 1105 c0 -5 5 -17 10 -25 5 -8 10 -10 10 -5 0 6 -5 17 -10 25
-5 8 -10 11 -10 5z"/>
<path d="M1067 1049 c7 -7 15 -10 18 -7 3 3 -2 9 -12 12 -14 6 -15 5 -6 -5z"/>
<path d="M3150 775 c7 -8 17 -15 22 -15 6 0 5 7 -2 15 -7 8 -17 15 -22 15 -6
0 -5 -7 2 -15z"/>
<path d="M2865 713 c-41 -53 -59 -93 -35 -78 6 3 10 12 10 19 0 14 24 47 63
87 15 16 23 29 17 29 -5 0 -30 -26 -55 -57z"/>
<path d="M2935 750 c-10 -11 -13 -20 -7 -20 6 0 16 9 22 20 6 11 9 20 7 20 -2
0 -12 -9 -22 -20z"/>
<path d="M3234 697 c3 -10 6 -26 6 -35 0 -12 3 -13 11 -5 8 8 7 17 -6 35 -12
16 -16 18 -11 5z"/>
<path d="M2795 609 c-11 -16 -1 -19 13 -3 7 8 8 14 3 14 -5 0 -13 -5 -16 -11z"/>
<path d="M3286 607 c3 -10 9 -15 12 -12 3 3 0 11 -7 18 -10 9 -11 8 -5 -6z"/>
<path d="M2835 589 c-4 -6 -5 -12 -2 -15 2 -3 7 2 10 11 7 17 1 20 -8 4z"/>
<path d="M3301 573 c0 -6 -4 -20 -7 -30 -5 -14 -4 -15 5 -7 7 7 11 20 8 30 -3
11 -5 14 -6 7z"/>
<path d="M2780 561 c0 -10 19 -25 25 -20 1 2 -3 10 -11 17 -8 7 -14 8 -14 3z"/>
<path d="M2175 534 c-259 -13 -644 -32 -857 -42 -399 -19 -418 -22 -418 -62 0
-34 27 -44 118 -42 94 3 566 25 907 43 703 37 725 37 785 15 51 -19 77 -21
355 -21 280 1 304 2 355 22 52 19 67 20 200 12 372 -20 1348 -68 1470 -71
l114 -3 10 28 c20 56 25 56 -505 82 -266 13 -581 29 -699 35 -522 27 -553 28
-588 13 -18 -8 -50 -16 -70 -18 -20 -2 -73 -9 -117 -16 -88 -13 -318 -6 -407
12 -29 6 -66 12 -83 14 -16 2 -43 8 -58 14 -16 6 -31 10 -35 10 -4 -1 -218
-12 -477 -25z"/>
<path d="M3038 553 c18 -2 45 -2 60 0 15 2 0 4 -33 4 -33 0 -45 -2 -27 -4z"/>
<path d="M2898 523 c12 -2 32 -2 45 0 12 2 2 4 -23 4 -25 0 -35 -2 -22 -4z"/>
<path d="M3068 523 c17 -2 47 -2 65 0 17 2 3 4 -33 4 -36 0 -50 -2 -32 -4z"/>
</g>
</svg>
